<svg id="Layer_1" data-name="Layer 1" xmlns="http://www.w3.org/2000/svg" viewBox="0 0 1066 946"><defs><style>.cls-1{opacity:0.9;}.cls-2,.cls-3,.cls-4{fill:#fff;}.cls-3{font-size:40px;}.cls-3,.cls-4{font-family:RockSalt-Regular, Rock Salt;}.cls-4{font-size:50px;}</style></defs><g class="cls-1"><g class="cls-1"><path class="cls-2" d="M558.73,577.65,570.43,633c-1.14-4-2.27-8-3.41-11.92C563.4,607.6,561.63,592.63,558.73,577.65Z"/><path class="cls-2" d="M548.21,526.91a.36.36,0,0,0,0,.11q4.43,21.39,8.83,42.73c-.23-1-.45-1.92-.67-2.88A362.42,362.42,0,0,1,548.21,526.91Z"/><path class="cls-2" d="M531.17,293.61c3.79,14.67,7,32.73,10.16,49.49.21,4.26.71,8.81.71,12.41a6.94,6.94,0,0,1,.06,1.07c0,.71,0,1.75.07,3,0,2.58.09,6.17.15,10.17.1,8,.17,17.65.14,24.16A117.62,117.62,0,0,0,537,374.5c-.37,5.18-.73,15.53-1.46,15.53-2.74-2.62-4.45-13.19-6.06-24.17C529.56,362.55,531.59,317.56,531.17,293.61Z"/><path class="cls-2" d="M531.66,236.8c.21-15.54,1.48-36,1.87-44.6a155.19,155.19,0,0,1,4.52,16.63c.73-5.18,1.45-8.63,1.81-13.81.26,1.34.53,2.68.79,4,.23,26,.61,51.82,1,77.65C540.64,274.94,534.58,243.89,531.66,236.8Z"/><path class="cls-2" d="M531.89,283c-.22-5.89-.43-11.21-.62-16.27.06-9.93.16-19.88.39-30,2.92,7.09,5.52,17,7.48,29,0-1.73,1-3.24,1-5,.68,8.34.47,14.13,1.44,15.87q.5,35.94.78,71.88c-.71-5.16-.35-10.32-.35-15.48-.87,2.47-.91,6.12-.71,10-3.21-16.76-6.37-34.82-10.16-49.49,0-1.69,0-3.36,0-5A12.49,12.49,0,0,0,531.89,283Z"/><path class="cls-2" d="M547.7,544c-4.67-14.35-9-23.75-13.27-31.1-.23-1.61-.53-3.78-.91-6.17-.19-1.19-.4-2.44-.63-3.71l-.36-1.9-.48-2.3,0-1.75-.06-1.29c0-.85-.11-1.68-.19-2.47.06-11.25.7-34.81-.24-38.63s4,24.55,6.16,35.46a6.72,6.72,0,0,1,1.4,2.86c.22.71.43,1.53.64,2.44.1.45.2.92.3,1.42.05.24.1.5.15.75l.15.38.19.29a1.7,1.7,0,0,1,.11.25l.13.33c.17.44.34.88.51,1.34l1.05,2.85c.36,2.2-.88.54-.57,2.74.12,0,1.88,3.65,1.88,3.65s3.19,15.91,4.77,23.86c-.6,4.17,2.45,13.58,2.8,13.82.47,2.29.93,4.58,1.4,6.88l0,.22-3.16-8.81C548.77,543.77,547.7,544,547.7,544Z"/><path class="cls-2" d="M535.51,390c-2.74-2.62-4.45-13.19-6.06-24.17-.15,4.31-.52,15.29-.56,16.46.62-1.3,1.28-3.48,1.55-.91.36,6.9.73,15.52.73,20.7-.2,6.6-1,13.73-1.48,20.8.25,5.81.51,11.57.75,17.17,0,.38,1,3.44,1.45,3.44,0,4-.15,7.57-.36,11.14.06.1.31,2.15.7,5.22s.92,7.18,1.51,11.37c1.2,8.38,2.68,17.15,4,18.87a6.72,6.72,0,0,1,1.4,2.86c.22.71.43,1.53.64,2.44.1.45.2.92.3,1.42.05.24.1.5.15.75l.15.38.19.29a1.7,1.7,0,0,1,.11.25l.13.33c.17.44.34.88.51,1.34l1.05,2.85c0-.07-.15-.8-1-5.16a.87.87,0,0,0,0-.18c0-.16,0-.35,0-.57,0-.58,0-1.32,0-2.17,0-1.71,0-3.88.06-6.22.05-4.7.09-10.09.13-13.85a26.32,26.32,0,0,0-.95,4.88c0-1.31.85-10.55,1-14.24.07-6,.13-20.64,0-22,0-1.72-.73,1.74-1.45,1.74,1-7.33,1.63-14.91,2-22.73q0-3.19.07-6.37c.27-.65.46-1.13.46-.25.08,1.35.14,2.69.19,4,.06-3.94.3-20.64.37-25-.22,4.49-.54,8.91-.94,13.23q0-6.87.08-13.71c0-.19,0-.37,0-.56A118.11,118.11,0,0,0,537,374.5C536.6,379.68,536.24,390,535.51,390Z"/><path class="cls-2" d="M609.15,826.87c.54,9.68,3.6,24.61,3.54,33.22-.63,13.32-5.38,9-8.09,14.84-6.54-39.63-13.79-79.36-21.45-119.09,3.58,9.51,6.13,26.56,10.35,34.18.35-.07,0-3.53,0-5.29,3.13,9.93,6.91,26.77,8.69,26.41,1.08-.22,1.64-3.53,2.76-5.26.25,1.25.51,2.49.77,3.75C606,813.69,607.66,819.81,609.15,826.87Z"/><path class="cls-2" d="M595.48,752.68q2.94,13.83,5.9,27.7a2.43,2.43,0,0,0-.84.87q-3.33-16.26-6.94-32.47C594.22,750.18,594.85,751.49,595.48,752.68Z"/><path class="cls-2" d="M593.53,784.73c0,1.76.32,5.22,0,5.29-4.22-7.62-6.77-24.67-10.35-34.18q-4.41-22.9-9-45.81c.82,2.57,1.64,5.14,2.46,7.69-1.72-8.45.43-10.65-1.29-19.11,7.6,24.17,14.84,57.18,22.7,74.81q3.59,16.2,6.94,32.46c-1.12,1.73-1.68,5-2.76,5.26C600.44,811.5,596.66,794.66,593.53,784.73Z"/><path class="cls-2" d="M575.34,698.61c1.72,8.46-.43,10.66,1.29,19.11-.82-2.55-1.64-5.12-2.46-7.69q-5.34-26.44-10.67-52.89c-.21-1.18-.41-2.37-.61-3.54-2.45-13.55-4.91-24.85-7.19-37.52,3.12,8.09,6.24,16.16,9.33,24.53,1.31,16.47,3.23,34.33,6.09,53.58-1-6.84,1.1-5.51.77-9-.56-12.85,1.27-24.68,4.28-18.81q8.45,39.42,16.91,78.94a31.78,31.78,0,0,0,0,6l5,22C590.18,755.79,582.94,722.78,575.34,698.61Z"/><path class="cls-2" d="M565,640.61c-3.09-8.37-6.21-16.44-9.33-24.53-.58-3.22-1.14-6.53-1.7-10-.31.07-.62.14-.7,1.34l-1.46-7.12c-.4-2.9.15-5.81-2-9.62l-2.06-10a32.9,32.9,0,0,1,.07-8.52l-1.07.21c-1.39-3.24-1.37-6.77-2-10.15a.9.9,0,0,1-.78-.13c-2.32-15.91-7.78-38.07-8.61-42.17-.28-2.32-.58-4.66-.92-7,4.23,7.35,8.6,16.75,13.27,31.1,0,0,1.07-.21,1.77,1.41l3.16,8.81c2,18.71,8.65,41.87,8.87,42.83l1.65,7.9c2.9,15,5.73,38.35,11.7,55.33l1.32,6.16c-3-5.87-4.84,6-4.28,18.81.33,3.45.54,14.89-.77,9C567.17,673,565,639.53,565,640.61Z"/><path class="cls-2" d="M536,125.73q.33-8.82.64-17.85c0,6.5-.37,13,.46,16.47-.28,2.83-.28,6.12-.28,9.41C536.43,131.25,536.17,128.56,536,125.73Z"/><path class="cls-2" d="M541.13,137.21v5.18c-.72,0-1.45-3.45-1.08-6.9-.73,0,0,3.45-.37,3.45-1,0-1-2-.88-4.32,1.62,0,3.24,2.6,3.24,5.18v3.42C541.72,141.26,541.53,138.18,541.13,137.21Z"/><path class="cls-2" d="M539.86,195c-.36,5.18-1.08,8.63-1.81,13.81a155.19,155.19,0,0,0-4.52-16.63c.71-15.59,1.31-30.9,1.89-46.62.21,2.82.47,5.53.82,8,0-3.28,0-6.56.28-9.41a5.42,5.42,0,0,0,.63,1.65h0c-.12,2.35-.08,4.31.88,4.31.37,0-.36-3.45.37-3.45-.37,3.45.36,6.9,1.08,6.9v-5.17c.4.95.58,4,.91,6q0,22.38.24,44.59C540.39,197.7,540.12,196.36,539.86,195Z"/></g></g><text class="cls-3" transform="translate(653.5 457.86) scale(1 1.1)">48%</text><text class="cls-4" transform="translate(293.95 511.79) scale(1 1.1)">52%</text><g class="cls-1"><g class="cls-1"><path class="cls-2" d="M938.6,447.77c.51-1.27.07-11,1-7.34q.29,4,.59,8.05c.08,1.34.24,2.67.25,4l.09,4,.36,16.1c-.43.14-1-1.62-1.42-5.64-.21-2-.4-4.59-.53-7.77S938.9,452.22,938.6,447.77Z"/><path class="cls-2" d="M883.85,301a380.09,380.09,0,0,0-20.7-36.62l-3.48-5.6c-.58-1-1.18-1.9-1.77-2.86s-1.19-1.92-1.85-2.84c-2.57-3.71-5.15-7.43-7.63-11l-2-2.92c-.7-1-1.46-1.88-2.18-2.82l-5.76-7.49c-1.94-2.49-3.81-5-5.9-7.39l-6.13-7.21c-2-2.4-4-4.85-6.24-7.11l-9.27-9.78c-1.53-1.69-3.24-3.19-4.85-4.77L801.22,188l-2.55-2.82-2.4-2.25-2.51-2.14-5-4.26c-3.36-2.82-6.61-5.78-10.13-8.41-2.32-2-4-3.56-5.67-5.1-2-1.43-4.13-3-6.33-4.51l-6.56-4.19-5.41-3.87-2.76-2c-.94-.64-1.91-1.24-2.86-1.86l-11.31-7.3a1.54,1.54,0,0,0-.27.15,396.27,396.27,0,0,0-57.35-28.9l-12.37-5-12.59-4.36c-2.11-.71-4.2-1.47-6.31-2.15l-6.41-1.86c-4.27-1.21-8.52-2.53-12.82-3.66l-13-3.07-3.25-.77-1.62-.37-1.64-.3-6.57-1.21L597,86.63c-2.19-.39-4.37-.85-6.58-1.09L577.13,83.8l.57-.75c-1.77-.21-3.59-.51-5.46-.66l-5.7-.45L554.76,81c-.18.25-.36.51-.53.77a427,427,0,0,0-60.36,1.46c-3.93.4-7.86,1-11.7,1.41l-5.66.7-2.75.34c-.91.12-1.79.31-2.67.45-10.32,1.33-14.25,2-16.45,2.54s-2.67,1-6.13,1.72L435.8,92.88c-4.28,1-8.62,2.12-13.17,3.24l-5.07,1.42c-.91.24-1.83.54-2.76.86l-2.81.94c-7.49,2.37-14.27,4.29-21.6,7.15l-8.15,3.21-2,.77c-.65.27-1.29.57-1.93.85l-3.77,1.7-7.32,3.28c-2.39,1.08-4.76,2.07-7,3.27l-13.14,6.63-1.59.81-1.55.88-3.06,1.73-6.07,3.44c-2,1.13-4,2.27-6,3.4L323,140.12l-5.81,3.67c-1.94,1.25-3.94,2.41-5.82,3.79l-11.65,8.19c-2,1.35-3.93,2.9-5.91,4.43l-6,4.7c-5.13,3.86-11.06,9.35-17.69,15.07-1.68,1.4-3.25,3-4.89,4.55l-4.94,4.73-5,4.77c-1.64,1.63-3.2,3.32-4.8,5-3.16,3.32-6.33,6.52-9.3,9.65s-5.61,6.3-8.18,9.12l-3.7,4-3.21,3.72c-2,2.32-3.77,4.28-5.21,5.78l-3.83,5.22-3.64,5.35c-2.43,3.55-4.9,7.05-7.35,10.53L199.25,263l-3.35,5.18-3,5.25c0-.76-1.59,1.72-3.62,5.13-1,1.71-2.15,3.64-3.26,5.52s-2,3.8-2.92,5.32l-3.48,6.75c-.59,1.16-1.19,2.31-1.78,3.45l-.86,1.68-.77,1.67c-1.66,3.64-3.23,7.1-4.81,10.55-.78,1.73-1.57,3.46-2.37,5.21l-2.17,5.45-4.18,10.51c-.76,1.8-1.38,3.68-2,5.56s-1.28,3.78-1.93,5.67a392.66,392.66,0,0,0-17.58,74.66l-.93,6.5-.46,3.25c-.16,1.08-.31,2.16-.39,3.26q-.57,6.54-1.15,13.09c-.13,2.21-.38,4.47-.42,6.76s-.09,4.61-.13,6.93-.08,4.64-.12,6.94l-.06,3.42c0,1.13,0,2.25,0,3.37q.21,6.63.41,13.27c.09,2.21.09,4.42.26,6.63l.53,6.61c.23,2.43.46,4.8.68,7.14.11,1.16.21,2.32.32,3.47,0,.57.11,1.15.16,1.72l.24,1.69c.64,4.51,1.27,8.92,1.91,13.33.19,1.59.29,2.38.49,4,.91,5.53,2,11.25,3.05,17,.29,1.43.48,2.87.84,4.28s.67,2.83,1,4.24c.67,2.81,1.33,5.6,2,8.34l1.09,4.68c.36,1.57.86,3.09,1.29,4.64l2.66,9.25,1.34,4.63c.42,1.55,1,3,1.52,4.57l3.14,9.11,1.77,5.55,2,5.31c1.34,3.53,2.68,7.06,4.09,10.79,1.09,2.31,2.56,4.89,3.93,7.75s2.84,5.93,4.26,9.08c.35.78.71,1.57,1.06,2.36l1.17,2.32c.77,1.55,1.54,3.09,2.29,4.61l4.22,8.63a414.18,414.18,0,0,0,35.36,54.29l7.91,9.29c2.68,3,5.41,5.77,7.92,8.46a17.79,17.79,0,0,1,1.43,3.24,419.1,419.1,0,0,0,44.37,42.79c.59-.23,1.13-.42,1.74-.63,6.17,4.6,10.26,7.42,13.23,9.38,1.47,1,2.75,1.68,3.82,2.31s2,1.15,2.88,1.69c3.59,2.52,7.16,5.07,10.78,7.55l11.1,7,4.3,2.86,4.17,2.5,7.65,4.58c4.75,3,9.15,5.12,12.94,7.15l5.34,2.76c1.65.85,3.19,1.65,4.67,2.25,2.95,1.26,5.46,2.27,7.64,3,8.31,3.89,16.79,6.87,25.13,10.16,4.22,1.5,8.5,2.83,12.77,4.27l6.44,2.14,6.58,1.82c12.24,4.07,22.46,6.25,29.43,7.9,1.74.43,3.33.6,4.67.84s2.5.38,3.42.49c1.84.22,2.78.24,2.73,0l7.77,1.42,1.9.34c.64.1,1.29.17,1.94.26l4,.52c12.54,1.81,25.19,2.89,37.84,3.48,5.64.3,10.16.49,13.81.59,1.83.09,3.44,0,4.86,0l3.76-.19c4.36-.27,6.3-.58,7.94-.73l3.86-.08,1.92,0,1.92-.14,7.6-.56c5-.41,10-.6,14.7-1.3l9.52-1.18,4.81-.6c1.6-.2,3.18-.54,4.77-.8l9.38-1.65c3.08-.54,6.11-1,9-1.74,20.77-4.42,17.09-4.49,30.08-8.17,1.69-.46,3.46-.83,5.21-1.39l5.37-1.67,11.09-3.41c2.24-.79,4.44-1.71,6.65-2.56,1.71-.94,3.86-2,6.25-3s5.06-2.06,7.65-3.31c5.22-2.38,10.62-4.66,14.58-6.35,2.14-1,4.25-2.15,6.36-3.21a76.1,76.1,0,0,1,9.74-5.73c3.82-2.1,7.72-4.29,10.47-5.74l6.86-5.13,12.63-7.71c1-.64,2.09-1.26,3.12-1.92l3-2.07,6.19-4.23c6.54-4.42,12-9,18.25-13.81.9-.92,1.83-1.82,2.69-2.8l2.6-2.92,8.92-7.35c.73-.61,1.47-1.2,2.17-1.81l2.06-1.87,4-3.62,7.66-7.15,7.2-7.41c1.2-1.23,2.39-2.47,3.6-3.7l1.8-1.86c.6-.62,1.15-1.29,1.73-1.93l6.94-7.9c1.24-.52,2-.4,3.26-.95l-6.12,7.58-3.06,3.81c-1,1.29-2.14,2.46-3.2,3.7L817.92,742c-1.82,1.12-3.61,2.28-5.95,4-1.11,1.14-2.14,2.28-3.27,3.36l-3.57,3.38L796,761.36c-3.8,3.73-8.16,7.54-12.26,11.18-2,1.86-4.15,3.47-6.07,5.05s-3.72,3.07-5.26,4.43l-4.35,3.2L767,786l-1.17.78c-.77.53-1.56,1-2.35,1.58l-9.63,6.51c-.89.64-1.77,1.3-2.68,1.92l-2.75,1.79-5.51,3.58c-3.68,2.37-7.3,4.85-11.13,7-4.14,2.53-8.9,5.52-13.1,8a97.61,97.61,0,0,1-11.57,7c-4.21,2.38-8.8,4.19-12.78,6.08,0,.26-.07.57-.11.88l-7.25,3.25c-5.15,2.1-10.37,4-15.62,6-1.33.48-2.63,1-4,1.47l-4.08,1.33-8.33,2.71-5.21,1.71c-1.62.47-3.11.91-4.49,1.33-2.74.84-5,1.61-7,2.3s-3.59,1.33-5,1.91c-.72.28-1.39.58-2,.81l-1.88.66-11.64,2.81c-1.91.45-3.78.93-5.64,1.33l-5.46,1L599.12,861l-3.77.59c-1.24.19-2.45.4-3.63.49l-8.18,1.56-8.58,1c-1.43.19-2.87.27-4.31.36l-4.3.29-8.6.56-4.28.29-4.29.07c-5.71.06-11.39.21-17,.2l-16.77-.62c-2.93.17-5.62,0-8.33,0l-8.29-.16c-2.36-.25-4.78-.4-7.22-.75l-7.4-1.08-7.54-1.1-3.81-.57-3.77-.75-15-2.6-14.9-3.3-2.92-.68c-1-.23-1.94-.45-2.89-.74l-5.76-1.66-.41.39c-10.76-2.95-22-6.95-32.38-10.87.13-.12.29-.23.42-.35-5.11-2.12-8.94-3.65-12-4.83-1.53-.6-2.89-1.06-4.08-1.56l-3.25-1.33c-4-1.6-7-2.67-12.91-5.24-4-1.9-8.11-4-12.25-6.09-2.06-1-4.14-2.06-6.16-3.13l-5.86-3.33a54,54,0,0,0,5.48,4.1c2.38,1.51,5.22,3.09,8.14,4.67s5.93,3.13,8.71,4.48,5.45,2.25,7.48,2.95l7.29,3.32c3.43,1.86,6.85,3.27,10.21,4.83l10.32,4.68q-5.08-1.64-9.88-3.32l-4.74-1.69c-1.55-.58-3.12-1.07-4.59-1.75-5.95-2.57-11.63-5.07-17.08-7.65l-15.71-8.14c-5.06-2.82-10-5.68-15.14-8.36-2.72-1.52-5-3.1-7.22-4.42s-4.17-2.54-6.05-3.64l-5.34-3.07-4.83-3c-3.18-2-6.38-4.08-10-6.64l-1.4-1-1.4-1.11-2.95-2.4c-2.05-1.68-4.27-3.56-6.71-5.69-2.07-1.71-4.06-3.33-5.84-5l-5.16-4.64-4.63-4.08-2.1-1.82c-.67-.59-1.28-1.2-1.89-1.76-4.82-4.51-8.17-7.36-9.83-8.36a400.58,400.58,0,0,1-45.31-52.81,56.39,56.39,0,0,0-5.39-8.35c-2.28-3.25-4.79-7-7.32-11.11a304.84,304.84,0,0,1-30.31-56.57c-7.95-19.58-14.43-39.65-20.62-60.84-.87-4.66-1.7-8.76-2.53-12.57-.46-1.89-.76-3.74-1.08-5.55l-1-5.32c-.7-3.51-1.4-7-2.14-10.7s-1.17-7.7-1.81-12.16l-.58-4.81c-.18-1.6-.42-3.2-.49-4.81l-.64-9.65c-.2-3.21-.45-6.43-.6-9.65s-.09-6.45-.14-9.68a106.65,106.65,0,0,1-.64-15.88q.1-4,.32-8.05c.07-1.36.15-2.72.22-4.1s.12-2.76.31-4.16c.62-5.57,1.28-11.35,1.88-17.47.11-1.54.39-3.07.6-4.64s.42-3.17.64-4.78c.42-3.24.81-6.59,1.17-10.07.11-.74.19-1.49.32-2.22l.42-2.2c.28-1.45.55-2.9.82-4.34q.83-4.31,1.63-8.52c.26-1.41.53-2.81.8-4.21l1-4.13c.66-2.75,1.32-5.49,2-8.24.44-2,.89-4.08,1.36-6.25s1.13-4.35,1.7-6.57l3.39-13c2.53-8,4.68-14.33,5.56-15.42a80.48,80.48,0,0,1,3.4-8.62c1.09-2.44,2.12-4.62,3.2-7,.54-1.17,1.09-2.39,1.68-3.7.3-.66.58-1.35.92-2.05l1.06-2.2c1.47-3.07,3.13-6.73,5.14-11.44.54-1.28,1.08-2.59,1.67-3.91s1.28-2.62,1.94-4l4.08-8.17c.69-1.38,1.4-2.77,2.1-4.16s1.52-2.71,2.28-4.07c1.54-2.7,3.08-5.38,4.59-8,2.9-5.33,6.15-10.16,8.87-14.58,1.37-2.21,2.65-4.29,3.8-6.21s2.33-3.59,3.26-5.12c2-2.67,4.3-5.68,6.69-8.95l1.82-2.5,2-2.5c1.34-1.69,2.72-3.44,4.14-5.22,5.48-7.28,12.09-14.69,18.6-22.26,13.41-14.82,28.35-28.58,39.9-37.36.53-.49,1.06-1,1.63-1.5l1.77-1.48,3.76-3.1c2.6-2.11,5.37-4.34,8.25-6.66s6.12-4.45,9.34-6.76l4.91-3.49c.84-.58,1.66-1.19,2.51-1.75l2.61-1.66,10.58-6.7L326.4,132l2.74-1.56,5.47-3.1,5.42-3.08,2.68-1.53c.88-.51,1.81-.93,2.71-1.4L356,115.91l4.31-2.2,4.41-2,8.83-4c-.41.51,1.78-.34,4.71-1.6s6.75-2.62,9.37-3.64,5.61-2.17,8.33-3.23a65.3,65.3,0,0,0,6.84-2.63c-.32-.12,2.18-1,6.16-2.19,2-.57,4.32-1.32,6.91-1.91s5.38-1.14,8.2-1.68c0,.06-.05.18-.07.3-3.14,1.06-6.1,2-9.13,3.1l-9.55,3.76c2.42-.61,4.71-1.23,6.9-1.84l3.24-.93,3.18-.76c4.18-1,8.18-2,12.32-2.87,1.63-.72,2.47-1.3,4.11-2,6.34-1.65,12.66-3.43,19.08-5.08l14.54-1.51c4.84-.78,7.92-1,10-1.37a24.28,24.28,0,0,0,4-.91c1.76-.59,2.78-1.19,9.62-2.18l16.84-.59c1.42,0,2.83-.14,4.25-.11l4.24.06,8.34.14,4.77-.16,2.34-.06,2.31,0,9,.29,8.64.33,8.37.76,8.23.75c1.37.12,2.74.21,4.1.36l4.08.54c2.72.35,5.46.69,8.23,1l4.18.45c1.4.16,2.81.25,4.22.49,2.83,1,4.85,1.76,6.86,2.56l11.44,2L624.1,90l4.62,1.12,2.31.56c.77.2,1.52.44,2.28.66L642.42,95,647,96.38c1.52.45,3,.87,4.54,1.42l9,3.12c1.88.43,4.63,1.19,7.69,2.1s6.32,2.29,9.4,3.49,5.9,2.36,7.94,3.3,3.23,1.79,3.15,2l8.68,4c2.89,1.35,5.83,2.57,8.63,4.09l8.48,4.38c2.82,1.48,5.7,2.85,8.42,4.51C730.19,132.57,737,135.72,744,140c-3.73-3.5,11.21,5.07,20.5,12.42,1.61,1.57,3.17,3.11,4.74,4.68,4.56,3.4,8.48,6.31,13.05,9.7,1.77,1.5,3.54,3.32,5.38,5l5.29,5.12c1.79,1.59,3.81,3.23,5.68,5l5.47,5.25,4.23,4c1.37,1.35,2.8,2.59,4.07,4l7.95,8.38c1.67,1.74,3.23,3.26,4.56,4.72l3.57,4,5.33,5.91c1.46,1.63,2.74,2.92,3.85,4.24s2.16,2.57,3.35,4l1.18-.15c2,2.18,3.76,4.21,5.51,6.17l2.59,2.88,2.42,2.92c3.07,4.26,5.89,8.24,8.54,12s4.8,7.66,7.08,11.33l3.36,5.48,3.09,5.64,6.39,11.6c11,22.83,5.11,14.1,5.67,16.88,2.69,5.75,5.24,11.61,7.88,17.42.63,2.82,1.44,6.44,2.29,10-.16,1-1.84-2.55-4.15-8.1-1.29-2.71-2.77-5.92-4.3-9.3-.76-1.69-1.54-3.43-2.33-5.17l-1.16-2.61C884.71,302.69,884.27,301.85,883.85,301Z"/><path class="cls-2" d="M845.12,205.67c-2.77-3-5.16-5.59-7.27-7.94-1-1.2-2.1-2.23-3.06-3.24s-1.85-2-2.7-2.87c-3.37-3.63-5.84-6.55-8-9.34,2.48,2.37,5.17,5,7.78,7.56l3.84,3.82c1.24,1.23,2.42,2.44,3.43,3.64C843.24,202,846,205.55,845.12,205.67Z"/><path class="cls-2" d="M781.14,152.61c-2.88-1.93-6.28-4.44-10-6.63-6.23-4.55-12.23-9-18.54-12.87l-9.3-5.88c-3.14-1.87-6.34-3.61-9.52-5.43L729,119.1c-1.6-.89-3.17-1.86-4.84-2.66l-10-5.1-5.05-2.62c-1.69-.9-3.46-1.65-5.21-2.49q-5.26-2.48-10.71-5.11c-3.22-1-4.4-1-4.4-.71s1.15,1,2.42,1.86c2.56,1.63,5.76,3.44,1.92,2.26a35,35,0,0,1-4.12-1.45c-1.64-.58-3.47-1.29-5.41-2-3.89-1.52-8.22-3.26-12.24-4.57l-.24.2c-9-1.59-9.38-1.22-9.77-.91L655,93.69l-3.23-1c-1.09-.34-2.2-.6-3.31-.9l-13.69-3.63c-.82-.3-1.64-.62-2.49-.91l-2.57-.81-5.25-1.62-10.37-3.23c4.95-.1,22.49,4.66,23.34,4.07,5.6,1.47,10.44,2.6,16,4.16-23.69-8.88-47.27-13.34-68.16-16.21L578,72.11l-3.73-.75-3.6-.54c1.33,0,2.68-.15,4.12-.16s3,0,4.74.09l15.64,1.79,11.55,2c3.84.71,7.72,1.26,11.51,2.21l11.44,2.6c1.9.45,3.83.8,5.7,1.35L641,82.32,650.87,85l2.31.63c.76.22,1.51.49,2.26.73l4.6,1.51c3.56.65,6.42,1,9.21,1.49,4,1.15,7.77,2.64,11.54,3.95s7.55,2.67,11.48,4.17l12.12,5.83c2,1,4.06,1.89,6,3l5.92,3.19c5.74,3.11,10.65,5.4,15.1,8s8.83,4.68,13.53,7.39l6.24,4,8.24,5.49c1.41.9,2.71,1.95,4.07,2.92l4,3,7.93,5.84c2.58,1.95,5,4,7.39,5.92Z"/><path class="cls-2" d="M914.23,328.41,909,315.67l-.65-1.59-.73-1.57-1.46-3.13-2.93-6.28-2.94-6.31c-1-2.09-2.16-4.13-3.24-6.22-2.2-4.14-4.36-8.35-6.65-12.54l-5.6-9.56c-.92-1.58-1.85-3.15-2.77-4.72-.46-.78-.9-1.58-1.39-2.34l-1.49-2.28-6-9.14-3-4.61L867,240.87l-4.27-6c-.89-1.71-1.79-3.41-2.68-5.11s-1.88-3.33-2.82-5c-5.47-7.18-7.22-8.94-8.48-9.94a33.4,33.4,0,0,1-5.76-5.28l-7-8-1.78-2c-.61-.67-1.25-1.31-1.88-2-1.25-1.32-2.52-2.64-3.79-4l-7.65-8c-2.66-2.58-5.38-5.12-8.08-7.68-2.33-2.29-4.49-4.47-6.78-6.64l-7.54-6.74-3.25-3.85c-1.2-1.37-2.42-2.87-3.76-4.23L780,147.32c-1-.75-1.9-1.52-2.87-2.23L774.17,143l-5.66-3.94a99.16,99.16,0,0,0-17.29-10.23l-6.24-4c-4.7-2.71-9-4.92-13.53-7.39s-9.36-4.84-15.1-8l-5.92-3.19c-2-1.06-4-2-6-3l-12.12-5.83c-3.93-1.5-7.72-2.8-11.48-4.17s-7.49-2.8-11.54-3.95l-13-4.42c-2.18-.8-4.44-1.4-6.73-2.06l-7-2c-5.94-1.26-6.7-.52-1.58,1.4l-5.65-1.58c-1.87-.55-3.8-.9-5.7-1.35l-11.44-2.6c-3.79-1-7.67-1.5-11.51-2.21l-11.55-2,2-2.28c-1.78-.47-3.63-.79-5.5-1.11l-5.72-1c-3.88-.6-7.87-1.25-12-1.74s-8.37-.7-12.7-1l-6.57-.48c-2.22-.11-4.46-.11-6.72-.17l-13.78-.26c-4.67,0-9.41.25-14.2.34l-7.23.17c-2.43.09-4.86.31-7.3.45l-14.82.86c-5.28.55-10.46,1.12-15.57,1.71l-3.81.45c-1.26.17-2.51.41-3.75.62l-7.42,1.29c-9.86,1.51-19.21,4-28.43,6.12-4.57,1.23-9,2.58-13.5,3.83l-6.66,1.89L405,84.4l-12.91,4.21Q385.74,91,379.43,93.2a389.9,389.9,0,0,1,88.36-25.08,445.24,445.24,0,0,1,79.37-5.3l-.17.26c7.12,0,14.31.72,21.63,1.29l5.51.47c1.85.17,3.69.48,5.54.72l11.23,1.55,2.84.4c1,.13,1.9.26,2.85.46l5.71,1.08,11.6,2.19c2,.32,3.89.87,5.85,1.31l5.92,1.38,6,1.38c2,.46,4,.9,6,1.5,8.91,2.41,17.37,4.36,23.93,6.74,3.31,1.11,6.2,2.13,8.54,3a23.53,23.53,0,0,1,5.16,2.51l9.23,3.66,4.62,1.84c1.53.62,3.09,1.2,4.58,1.91,2.38,1,4.74,1.92,7.06,2.92l6.61,3.06c1.08.51,2.16,1,3.21,1.52l3.09,1.63,12.09,6.4c.48-.3.88-.51,1.34-.76,1.29.6,2.47,1.27,3.61,1.9L734,115l5.72,3.11c3.46,1.9,6.34,3.35,8.64,4.79,4.68,2.77,7.7,4.47,10.74,6.18a411.87,411.87,0,0,1,64.92,53.22c2.2,2.79,4.67,5.71,8,9.34.85.9,1.75,1.85,2.7,2.87s2,2,3.06,3.24c2.11,2.35,4.5,5,7.27,7.94a408.5,408.5,0,0,1,78.71,145.85c-1.57-4-3.17-7.82-4.71-11.62S916.1,332.28,914.23,328.41Z"/><path class="cls-2" d="M759.13,129.06c-3-1.71-6.06-3.41-10.74-6.18-2.3-1.44-5.18-2.89-8.64-4.79L734,115l-3.28-1.79c-1.14-.63-2.32-1.3-3.61-1.9-.46.25-.86.46-1.34.76l-12.09-6.4L710.62,104c-1-.53-2.13-1-3.21-1.52l-6.61-3.06c-2.32-1-4.68-2-7.06-2.92-1.49-.71-3-1.29-4.58-1.91l-4.62-1.84-9.23-3.66a23.53,23.53,0,0,0-5.16-2.51c-2.34-.92-5.23-1.94-8.54-3-6.56-2.38-15-4.33-23.93-6.74-2-.6-4-1-6-1.5l-6-1.38-5.92-1.38c-2-.44-3.89-1-5.85-1.31l-11.6-2.19L596.59,68c-1-.2-1.9-.33-2.85-.46l-2.84-.4-11.23-1.55c-1.85-.24-3.69-.55-5.54-.72l-5.51-.47C561.3,63.8,554.11,63,547,63.08l.17-.26a445.24,445.24,0,0,0-79.37,5.3A389.9,389.9,0,0,0,379.43,93.2q6.31-2.24,12.64-4.59L405,84.4l6.5-2.16,6.66-1.89c4.46-1.25,8.93-2.6,13.5-3.83,9.22-2.1,18.57-4.61,28.43-6.12l7.42-1.29c1.24-.21,2.49-.45,3.75-.62l3.81-.45c5.11-.59,10.29-1.16,15.57-1.71l14.82-.86c2.44-.14,4.87-.36,7.3-.45l7.23-.17c4.79-.09,9.53-.31,14.2-.34l13.78.26c2.26.06,4.5.06,6.72.17l6.57.48c4.33.33,8.57.66,12.7,1s8.11,1.14,12,1.74l5.72,1c1.87.32,3.72.64,5.5,1.11l-2,2.28-15.64-1.79-4.73-.81c-1.58-.24-3.17-.4-4.76-.6l-9.58-1.11c-3.05-.27-4.86-.38-6-.4a5.47,5.47,0,0,0-1.92.22c-.66.21-.85.49-5,.51-5.32-.13-10.44-.35-15.55-.38l-15.55.35a423.29,423.29,0,0,0-66.65,8c-2.84.76-6,1.55-9.39,2.36l-5.22,1.23c-1.79.4-3.61.81-5.43,1.36L418.59,84.6,413,86.16c-1.82.58-3.6,1.21-5.35,1.8l-10.8,3.32-2.75.85c-.92.3-1.8.65-2.7,1L386.2,95l-6.63,2.32-3,1-1.41.5-1.33.55c-3.48,1.44-6.45,2.69-9,3.8s-4.74,2.08-6.66,3c-1,.42-1.83.89-2.64,1.34l-2.33,1.3c-6.54,3.13-14,6.37-20.3,9.87l-7.16,4.38-3.5,2.17-3.54,2.43-11.45,7-1.44.87-1.39.94-2.78,1.89-5.55,3.77L289.56,147l-6.3,5.18c-4.18,3.47-8.48,6.78-12.44,10.48-3.73,3.2-7.67,6.46-11.59,9.9L247.64,183.4l-1.79,1.7c-.59.58-1.15,1.19-1.72,1.78l-3.42,3.56-6.83,7.13a34.43,34.43,0,0,0-5.24,5c-1.53,1.74-3,3.58-4.69,5.77l-2.8,3.55-1.62,2-1.73,2.29c-2.42,3.2-5.41,7-9.31,11.62-.22.41-.57,1-1,1.64l-1.28,2.2c-2,3.28-4.35,6.74-6.75,10.23l-1.81,2.62-.92,1.31-.86,1.35-3.44,5.36-6.56,10.11c-1.9,3.25-3.62,6.22-5,8.77l-3.14,5-1.54,2.45c-.49.83-.94,1.67-1.41,2.5l-5.71,10.18c-.94,1.82-1.9,3.57-2.77,5.33s-1.66,3.55-2.48,5.31c-1.65,3.53-3.29,7.06-5,10.77-.61,1.32-1.1,2.71-1.63,4.09l-1.59,4.16c-1.07,2.79-2.14,5.61-3.21,8.42-.52,1.41-1.13,2.79-1.56,4.23l-1.4,4.27c-.92,2.84-1.84,5.65-2.74,8.41-.53,1.55-.8,2.34-1.32,3.88-.32.87-.6,1.75-.84,2.63s-.52,1.76-.77,2.64c-.52,1.75-1,3.49-1.53,5.23-1,3.47-2,6.92-3,10.36q-1.26,5.24-2.53,10.49c-.42,1.76-.85,3.52-1.27,5.29s-.9,3.55-1.21,5.37c-1.2,6.47-2.08,11.46-2.75,15.53-.17,1-.33,2-.46,2.9s-.19,1.79-.28,2.63c-.16,1.66-.3,3.17-.44,4.59-.23,2.84-.44,5.33-.66,8.05-.12,1.36-.24,2.78-.37,4.32s-.15,3.23-.26,5.11c-.58,5.64-1,10.16-1.3,13.91-.07.94-.16,1.83-.19,2.68s0,1.65,0,2.42c0,1.53,0,2.92,0,4.2,0,5.11.07,8.52,0,13-.08,5.47,0,10,0,13.78,0,1.9,0,3.62,0,5.19s0,3,.12,4.29c.32,5.2.56,8.49.8,11.77q.24,3.38.5,6.8c.23,2.27.55,4.54.82,6.83.57,4.56,1.14,9.16,1.71,13.75.8,4.56,1.59,9.12,2.38,13.65l1.2,6.78q.76,3.35,1.52,6.66c.72,2.45,1.4,4.73,2.13,7.2s1.37,5.14,2.33,8.3,1.55,5.53,2.22,7.9q.72,2.67,1.48,5.46c.25.93.5,1.87.76,2.82s.6,1.88.89,2.83c1.22,3.79,2.47,7.67,3.72,11.57,1.31,4.68,3.83,11.27,6.48,18.45.68,1.79,1.35,3.62,2.09,5.44l2.41,5.37c1.63,3.56,3.29,7.05,4.91,10.27.79,1.89,1.74,3.69,2.64,5.51l2.71,5.4,2.68,5.36c.89,1.78,1.76,3.56,2.76,5.26l5.79,10.27c1,1.7,1.91,3.41,2.9,5.1l3.13,4.95,6.84,10.3c2.23,3.22,4.5,6.22,6.71,9.3l3.37,4.62,1.71,2.36c.57.79,1.22,1.54,1.84,2.33l8,9.94,2.73,3.4,2.9,3.27,5.85,6.59c3.83,4.5,8.13,8.72,12.48,13.18a295.31,295.31,0,0,0,29.33,27.62c1.92,1.59,3.71,3.18,5.6,4.63l5.71,4.35c1.94,1.48,3.93,3,6,4.64,1.06.81,2.13,1.68,3.28,2.52l3.62,2.58,8.23,5.64c1.38.93,2.73,1.89,4.12,2.8l4.25,2.62,8.49,5.23c1.42.86,2.81,1.78,4.27,2.58l4.37,2.41,8,4.48,3.91,2.2,4,2,7.85,3.91,3.89,1.94,2,1,2,.87c2.11,1.11,5.5,2.61,9.37,4.31l6.07,2.69,6.3,2.56,7.92,3.28,3.8,1.56c1.24.52,2.51.91,3.74,1.36l14,4.9,1.64.56,1.63.48,3.22.94,6.16,1.77,5.83,1.65c.95.26,1.88.55,2.81.77l2.77.63,10.42,2.3c3.31.72,6.47,1.44,9.57,1.87,6.18,1,11.91,1.88,17.53,2.59,6.54.75,13.29,1.6,19.95,2.3l19.46,1.24,12.16.36,5.88.17,2.86.07c.94,0,1.87,0,2.78,0,5.22,0,9.3,0,12.63,0s5.88,0,8-.28c4.32-.37,7.06-.73,11.19-1.15a4,4,0,0,0,.26-.5l4.29-.32,2.14-.16,2.14-.25,8.61-1.07,8.75-1.09c2.95-.43,5.9-1,8.92-1.53.87-.26,2.49-.6,4.13-1,7.24-1,15.16-2.92,22.28-4.4l4.34-1.13c1.3-.35,2.49-.76,3.69-1.15l13.41-3.88c2.28-.62,4.5-1.43,6.7-2.19l6.52-2.27,7.34-2.3c2.49-.84,4.93-1.81,7.21-2.66,3.43-1.37,7.05-2.83,10.76-4.33s7.39-3.39,11.14-5.1a417,417,0,0,0,41.24-21.52c-8.89,5.41-15.93,10.18-22.6,13.66-3.3,1.82-6.41,3.48-9.46,5s-6.19,2.65-9.31,3.79l-5.6,2.57c-1.87.83-3.68,1.76-5.56,2.47L678,849.9l-5.51,2.35c-1.86.73-3.76,1.37-5.65,2q-5.67,2-11.38,4c-1.88.68-3.81,1.2-5.73,1.73L644,861.58l-5.68,1.53-2.82.75-1.4.37-1.42.3L625,867.61c-5.6,1.26-10.39,2.47-16.06,3.36-3,1.73-14.19,3.7-23.25,4.65-3.39.7-6,1.29-8.57,1.88-2.27.38-4.56.54-6.86.75l-6.94.64c-4.68.4-9.45,1-14.45,1-3.63-.08-6.53-.33-9.88-.5-1.68-.08-3.46-.14-5.51-.16s-4.35-.19-7.06-.2c-1.62.55-.35,1.49-2.58,2.16a29.2,29.2,0,0,1-6.8.71q-1.38,0-3.09.06H512.1c-.63,0-1.29-.07-2-.1-2.78-.17-6.08-.42-10-.75l-5.88-.51-3-.24-3-.38-12-1.54-6.05-.78-6.06-1.07L452,874.49l-1.54-.28-1.52-.34-3.06-.7-6.15-1.4-6.17-1.43-3.1-.72-3.06-.88c-8.17-2.38-16.48-4.58-24.56-7.66-10-2.72-16.95-4.47-34.27-12.19.69,0-1.45-1.16-4.51-2.61L359,843.94c-1.75-.82-3.54-1.54-5-2.34-4.26-2.18-7.69-3.88-10.72-5.36s-5.7-2.67-8.27-4.14-5.24-2.85-8.33-4.6-6.68-3.74-10.93-6.66l-6.71-4.65c-2.82-1.6-4.92-2.67-6.49-3.62l-3.76-2.24c-2.09-1.23-3.74-2.27-7.55-4.9,7.41,5.71,11.71,9,15,11s5.31,3.27,8.08,5.09l3.16,2c1.05.68,2.1,1.37,3.19,2L331,831.69l5,3c1.72,1,3.51,1.92,5.32,2.92-1.85-1-3.68-1.87-5.44-2.85l-5.17-3-10.48-6.06c-2.86-.94-5.55-2.06-8.32-3.11l-10.56-6.82c-9.2-7-16.18-12.07-21.62-16.91-2.77-2.35-5.27-4.49-7.67-6.54-.59-.51-1.2-1-1.76-1.53l-1.68-1.58-3.31-3.15L259,780.64c-3.43-2.62-6.42-5.39-9.49-8.07s-6.14-5.37-9.29-8.28l-4.94-5.52-7.19-7.23c-1.23-1.18-2.31-2.48-3.47-3.73L221.22,744l-4.1-4.75-2-2.36c-.68-.77-1.34-1.56-2-2.37-2.51-3.22-5-6.35-7.28-9.31-1.15-1.3-1.8-2-2.91-3.29-1.32-1.63-2.47-3.31-3.64-5s-2.31-3.27-3.46-4.89-2.29-3.25-3.46-4.9-2.37-3.29-3.46-5.08q-2.56-4.23-5.11-8.47l-2.53-4.23c-.84-1.41-1.7-2.81-2.44-4.28l1.78.06c-1-2.16-2-4.32-3.08-6.47l-2.08-3.64-2.71-4.34-1.35-2.18-1.25-2.23-5-9c-3.45-5.92-6.35-12.11-9.42-18.24.15.72.64,2.23,1.14,3.72l-2.53-5.68c-.82-1.9-1.71-3.74-2.41-5.66q-2.19-5.71-4.36-11.32l-2.16-5.6c-.62-1.89-1.25-3.78-1.87-5.66q-1.87-5.65-3.74-11.29c-.76-2-1.36-4-2-5.92s-1.22-3.89-1.83-5.82l-1.84-5.83c-.6-2-1.31-3.94-1.81-6q-1.12-5.18-2.27-10.49-.57-2.66-1.15-5.33c-.18-.9-.4-1.79-.56-2.69l-.45-2.72q-.89-5.46-1.79-11c-.3-1.83-.59-3.67-.89-5.51s-.44-3.7-.66-5.55c-4.78-30.17-5.25-52.3-4-67.63q.2-5.62.37-11.11c.24-3.66.59-7.29.89-10.91s.63-7.25.94-10.9l1.51-11c.27-2.05.53-4.12.79-6.09.13-1,.25-1.94.37-2.86s.31-1.78.45-2.6c1-5.85,1.75-10.86,2.75-16.67.3-1.62.75-3.15,1.14-4.68l1.19-4.58c.8-3.08,1.63-6.26,2.55-9.85.13-.75.26-1.51.4-2.29s.33-1.52.5-2.29c.33-1.53.66-3,1-4.49.61-2.89,1.12-5.5,1.37-7.33,1.54-5.63,3.68-11.29,5.65-17,1-2.85,2-5.72,3-8.52s2.23-5.53,3.32-8.25c3.56-9.63,8-18.95,12.25-28.4l7.08-13.86,1.77-3.48,1.93-3.39,3.89-6.78a399.38,399.38,0,0,1,35.39-51.75c1-1.34,2-2.61,2.95-3.85s2-2.37,2.87-3.52l5.41-6.73,2.7-3.38c.92-1.14,1.84-2.31,2.88-3.43,2-2.28,4.24-4.67,6.7-7.27l5.8-6,8.6-7.6,4.35-3.84c.72-.63,1.42-1.27,2.15-1.87l2.18-1.75,10.81-9.32c1.76-1.58,3.65-3,5.49-4.43l5.51-4.31,5.49-4.29c1.82-1.43,3.75-2.69,5.62-4.05l11.28-8,15.5-10.09c1.27-.85,2.6-1.6,3.92-2.37l4-2.31,8.07-4.66c1.09-.61,2.2-1.29,3.39-1.9l3.61-1.84,7.09-3.61A413.25,413.25,0,0,1,491.11,62.21,419.65,419.65,0,0,1,639.92,74.76c9.83,3.54,14,4.72,16.47,5.41s3.39.66,6.67,1.63a408,408,0,0,1,65.2,28.85c5.11,2.83,10.35,5.88,15.62,8.86,2.67,1.45,5.18,3.17,7.73,4.76Z"/><path class="cls-2" d="M660,87.91l-4.6-1.51c-.75-.24-1.5-.51-2.26-.73L650.87,85,641,82.32c-5.12-1.92-4.36-2.66,1.58-1.4l7,2c2.29.66,4.55,1.26,6.73,2.06l13,4.42C666.46,89,663.6,88.56,660,87.91Z"/><path class="cls-2" d="M841.06,226.48c-1.19-1.4-2.24-2.66-3.35-4s-2.39-2.61-3.85-4.24l-5.33-5.91-3.57-4c-1.33-1.46-2.89-3-4.56-4.72l-7.95-8.38c-1.27-1.41-2.7-2.65-4.07-4l-4.23-4L798.68,182c-1.87-1.79-3.89-3.43-5.68-5-1.38-1-2.17-1.46-3.6-2.43l-3.72-4.09L784,168.49l-1.63-1.72c-4.57-3.39-8.49-6.3-13.05-9.7-1.57-1.57-3.13-3.11-4.74-4.68C755.25,145,740.31,136.47,744,140c-7.07-4.25-13.85-7.4-21.14-11.18-2.72-1.66-5.6-3-8.42-4.51L706,119.9c-2.8-1.52-5.74-2.74-8.63-4.09l-8.68-4c.08-.26-1.13-1.07-3.15-2s-4.87-2.1-7.94-3.3-6.39-2.44-9.4-3.49-5.81-1.67-7.69-2.1l-9-3.12c-1.49-.55-3-1-4.54-1.42L642.42,95l-9.11-2.69c-.76-.22-1.51-.46-2.28-.66l-2.31-.56L624.1,90l-11.39-2.51-11.44-2c-2-.8-4-1.61-6.86-2.56-1.41-.24-2.82-.33-4.22-.49L586,82c-2.77-.31-5.51-.65-8.23-1l-4.08-.54c-1.36-.15-2.73-.24-4.1-.36l-8.23-.75L553,78.6l-8.64-.33-9-.29-2.31,0-2.34.06-4.77.16L517.62,78,513.38,78c-1.42,0-2.83.08-4.25.11l-16.84.59c-6.84,1-7.86,1.59-9.62,2.18a24.28,24.28,0,0,1-4,.91c-2.06.37-5.14.59-10,1.37l-14.54,1.51c-6.42,1.65-12.74,3.43-19.08,5.08-1.64.65-2.48,1.23-4.11,2l-7.77,2.46c-3,.59-5.82,1-8.69,1.67s-5.83,1.41-9.18,2.27l9.58-3.89,9.17-3.27c-2.82.54-5.61,1.12-8.2,1.68s-4.92,1.34-6.91,1.91c-4,1.19-6.48,2.07-6.16,2.19A65.3,65.3,0,0,1,396,99.3c-2.72,1.06-5.7,2.17-8.33,3.23s-6.37,2.52-9.37,3.64-5.12,2.11-4.71,1.6l-8.83,4-4.41,2-4.31,2.2-10.57,5.41c-.9.47-1.83.89-2.71,1.4L340,124.25l-5.42,3.08-5.47,3.1L326.4,132l-2.66,1.69-10.58,6.7L310.55,142c-.85.56-1.67,1.17-2.51,1.75l-4.91,3.49c-3.22,2.31-6.4,4.5-9.34,6.76s-5.65,4.55-8.25,6.66l-3.76,3.1L280,165.28c-.57.49-1.1,1-1.63,1.5-11.55,8.78-26.49,22.54-39.9,37.36-6.51,7.57-13.12,15-18.6,22.26-1.42,1.78-2.8,3.53-4.14,5.22l-2,2.5-1.82,2.5c-2.39,3.27-4.64,6.28-6.69,8.95-.93,1.53-2.1,3.2-3.26,5.12s-2.43,4-3.8,6.21c-2.72,4.42-6,9.25-8.87,14.58-1.51,2.63-3.05,5.31-4.59,8-.76,1.36-1.59,2.68-2.28,4.07s-1.41,2.78-2.1,4.16l-4.08,8.17c-.66,1.34-1.31,2.66-1.94,4s-1.13,2.63-1.67,3.91c-2,4.71-3.67,8.37-5.14,11.44l-1.06,2.2c-.34.7-.62,1.39-.92,2.05-.59,1.31-1.14,2.53-1.68,3.7-1.08,2.35-2.11,4.53-3.2,7a80.48,80.48,0,0,0-3.4,8.62c-.88,1.09-3,7.43-5.56,15.42l-3.39,13c-.57,2.22-1.2,4.41-1.7,6.57s-.92,4.27-1.36,6.25c-.65,2.75-1.31,5.49-2,8.24l-1,4.13c-.27,1.4-.54,2.8-.8,4.21q-.81,4.22-1.63,8.52c-.27,1.44-.54,2.89-.82,4.34l-.42,2.2c-.13.73-.21,1.48-.32,2.22-.36,3.48-.75,6.83-1.17,10.07-.22,1.61-.43,3.21-.64,4.78s-.49,3.1-.6,4.64c-.6,6.12-1.26,11.9-1.88,17.47-.19,1.4-.22,2.79-.31,4.16s-.15,2.74-.22,4.1q-.21,4.07-.32,8.05a106.65,106.65,0,0,0,.64,15.88c.05,3.23.09,6.46.14,9.68s.4,6.44.6,9.65l.64,9.65c.07,1.61.31,3.21.49,4.81l.58,4.81c.64,4.46,1.22,8.43,1.81,12.16s1.44,7.19,2.14,10.7l1,5.32c.32,1.81.62,3.66,1.08,5.55.83,3.81,1.66,7.91,2.53,12.57,6.19,21.19,12.67,41.26,20.62,60.84a304.84,304.84,0,0,0,30.31,56.57c2.53,4.08,5,7.86,7.32,11.11a56.39,56.39,0,0,1,5.39,8.35,400.58,400.58,0,0,0,45.31,52.81c1.66,1,5,3.85,9.83,8.36.61.56,1.22,1.17,1.89,1.76l2.1,1.82,4.63,4.08,5.16,4.64c1.78,1.67,3.77,3.29,5.84,5,2.44,2.13,4.66,4,6.71,5.69l2.95,2.4,1.4,1.11,1.4,1c3.66,2.56,6.86,4.63,10,6.64l4.83,3,5.34,3.07c1.88,1.1,3.87,2.29,6.05,3.64s4.5,2.9,7.22,4.42c5.12,2.68,10.08,5.54,15.14,8.36L360,830.69c5.45,2.58,11.13,5.08,17.08,7.65,1.47.68,3,1.17,4.59,1.75l4.74,1.69q4.8,1.68,9.88,3.32L386,840.42c-3.36-1.56-6.78-3-10.21-4.83l-7.29-3.32c-2-.7-4.65-1.7-7.48-2.95s-5.79-2.9-8.71-4.48-5.76-3.16-8.14-4.67a54,54,0,0,1-5.48-4.1l5.86,3.33c2,1.07,4.1,2.08,6.16,3.13,4.14,2.05,8.24,4.19,12.25,6.09l16,6.86c5.46,2.11,11,4.11,16.28,6.1-.13.12-.29.23-.42.35,10.37,3.92,21.62,7.92,32.38,10.87l.41-.39,5.76,1.66c.95.29,1.92.51,2.89.74l2.92.68c7.07,1.51,14.9,3.41,22.06,4.48l7.85,1.42,3.77.75,3.81.57,7.54,1.1,7.4,1.08c2.44.35,4.86.5,7.22.75,3.39-.06,6-.18,8.66-.35,2.39.16,4.75.47,8,.5l16.77.62c5.64,0,11.32-.14,17-.2l4.29-.07,4.28-.29,8.6-.56,4.3-.29c1.44-.09,2.88-.17,4.31-.36l8.58-1,8.18-1.56c1.18-.09,2.39-.3,3.63-.49l3.77-.59,7.41-1.18c-.09.29-.22.58-.31.82,2.28-.23,4.78-.43,7.26-.77l7.23-1.09c-4,1.24-8.1,2.64-11.42,3.46L600.58,864l-4.37.91c-1.46.31-2.92.64-4.4.85l-17.73,2.9c-5.94.71-11.9,1.35-17.85,2-3,.38-6,.42-8.92.59l-8.88.37c-1-.1-2.14-.17-3.32-.22s-2.43-.07-3.77-.17c-2.67-.15-5.69-.25-9.12-.34l-5.48-.13c-1.93-.07-4,0-6.15-.24-4.34-.33-9.17-.71-14.57-1.19l-.38.51a426.6,426.6,0,0,1-60.9-10c-1.64-.4-3-.87-4.16-1.2s-2.13-.6-2.95-.81a28.13,28.13,0,0,0-3.52-.7,34.68,34.68,0,0,1-5.84-.87l-4.55-1.32-4.42-1.51-9.5-3.24-3-.93-1.53-.48-1.53-.55-6.22-2.27-6.36-2.32c-2.13-.79-4.28-1.51-6.33-2.43-8.28-3.51-16.39-6.7-22.72-9.86A397,397,0,0,1,296.47,797a436.74,436.74,0,0,1-47-39.94,443.84,443.84,0,0,1-39.88-45.81l-9-12.48c-.77-1-1.48-2.11-2.17-3.2l-2.12-3.25-4.25-6.54c-2.94-4.31-5.5-8.9-8.18-13.46q-2-3.42-4-6.88c-1.34-2.3-2.5-4.72-3.77-7.09-2.52-4.91-4.37-8.61-5.86-11.89s-2.55-6.17-3.85-9.32c-.66-1.57-1.36-3.21-2.15-5L163,629.29c-.43-1-.84-2.08-1.3-3.22-.92-2.28-2-4.82-3.2-7.73-.63-1.46-1.29-3-2-4.65-.36-.83-.72-1.68-1.11-2.56s-.69-1.81-1.06-2.76l-4.52-13.16c-.38-1.11-.79-2.22-1.13-3.34s-.66-2.25-1-3.37c-.65-2.24-1.28-4.45-1.91-6.6q-.77-2.92-1.49-5.7c-.25-.93-.49-1.85-.73-2.75s-.4-1.82-.59-2.71q-1.16-5.36-2.2-10.18c-.35-1.61-.7-3.18-1-4.72-.17-.76-.33-1.52-.49-2.26s-.26-1.5-.38-2.23q-.73-4.41-1.4-8.37c-.44-2.65-.86-5.15-1.25-7.54-.1-.59-.19-1.18-.28-1.76s-.13-1.16-.19-1.73q-.18-1.71-.36-3.33c-.45-4.32-.81-8.2-1.06-11.73-.18-1.37-.4-2.63-.52-3.8s-.23-2.24-.33-3.23c-.2-2-.39-3.57-.56-4.9-.34-2.66-.61-4.22-.83-5.31a30.28,30.28,0,0,1-.94-6.16c-.13-5.72-.24-10.58-.37-16.29,0-1.36,0-2.65,0-3.88s.08-2.4.11-3.52c.08-2.24.16-4.25.22-6.09.11-3.67.15-6.62.17-9.15s.1-4.64.18-6.63.18-3.86.31-5.91c.28-2.69.52-5.09.74-7.24.1-1.07.19-2.09.28-3s.25-1.85.37-2.7c.45-3.38.76-6,1-8.06.46-4.21.61-6.55,1.09-9.74.29-1.59.43-2.39.72-4,.69-3.81,1.38-7.61,2.08-11.43l.52-2.87.26-1.43.33-1.43c.44-1.89.89-3.8,1.33-5.7.9-3.82,1.79-7.66,2.7-11.54s2.19-7.7,3.3-11.62c.45-1.57.95-3.34,1.49-5.2.26-.93.54-1.88.81-2.84l1-2.88c1.94-5.27,4-10.73,6-16.2l6.72-15.93c.67-1.81,1.52-3.57,2.31-5.36l2.42-5.38,2.43-5.41c.82-1.81,1.61-3.64,2.54-5.39q2.72-5.31,5.4-10.6c.91-1.75,1.77-3.53,2.71-5.24l2.9-5.07c3.29-5.61,6.4-11.32,10.05-16.74,0,.08.09.17.1.24l4.27-6.43c1.46-2.19,2.87-4.46,4.52-6.62,3.18-4.41,6.46-8.94,9.8-13.55,3.53-4.45,7.11-9,10.71-13.51.87-1.15,1.83-2.24,2.78-3.33l2.85-3.27,5.67-6.52c1-1.07,1.86-2.18,2.84-3.22l2.94-3.07,5.81-6.06,2.85-3,1.42-1.46,1.47-1.4,5.75-5.43,5.53-5.2c.89-.86,1.82-1.65,2.74-2.42l2.71-2.3,10-8.39c3.93-3.36,8.18-6.75,12.48-10.19,1.09-.85,2.15-1.73,3.26-2.55l3.38-2.4,6.75-4.76,3.34-2.33c1.1-.78,2.2-1.55,3.34-2.23l6.58-4.15c4.29-2.68,8.24-5.34,12-7.41,2.46-.84,6.85-3.26,11.76-6,1.22-.73,2.52-1.38,3.83-2l3.93-2c2.61-1.3,5.18-2.55,7.51-3.6,3.57-1.88,7.11-3.32,10.6-4.86l10.68-4.67,19.12-7.4L406.68,94l5.05-1.7,2.51-.85,2.52-.71,9.83-2.71,4.67-1.26c.77-.2,1.52-.42,2.27-.59l2.24-.47c5.89-1.22,11.13-2.22,15.33-2.86,1.59-.44,3.2-.73,4.81-1.07l4.83-1,9.65-2c1.6-.36,3.23-.59,4.85-.83l4.87-.73,9.75-1.46c2.31-.12,4.58.05,7.65.08,11.25-.81,15.3-1.21,19.33-1.2.6.32-3.72,1,2.61,1,4.85-.13,8.91-.27,12.47-.43s6.65,0,9.55-.09,5.62-.13,8.46-.24c1.42,0,2.87-.15,4.38-.13l4.8,0,11.76,1.22,2.87.3,2.81.42,5.45.84,9.71,1.12c1.62.16,3.22.44,4.82.71l4.8.8c4.22.45,8.52.8,12.75,1.3l10.37,3.23,5.25,1.62,2.57.81c.85.29,1.67.61,2.49.91l13.69,3.63c1.11.3,2.22.56,3.31.9l3.23,1,6.43,2.06c8.5,2.62,17.52,6.38,25.87,9.52,2.26.94,4.41,2,6.61,3l7.17,3.26c2.39,1.09,4.8,2.13,7.1,3.39l14,7.2c4,2.52,8.54,5.55,12.44,8.09,4.26,2.32,8.34,5,12.49,7.55s8.36,5.07,12.29,7.94,8,5.58,11.8,8.43c3.74,3,7.39,6.07,10.9,9.16,3.52,2.68,6.81,5.7,10.19,8.65l5.07,4.46,2.54,2.23L802.3,181l9.7,9.4c1.64,1.52,3.13,3.19,4.66,4.81L821.2,200c2.31,2.49,4.4,4.68,6.18,6.86s3.36,4.26,4.94,6.3l4.77,6.18,1.26,1.61,1.23,1.72,2.66,3.65Z"/><path class="cls-2" d="M637.42,85.62c-1.55-.45-3-.92-4.53-1.34l-4.51-1.11-9.64-2.42c-1.55-.4-3-.75-4.21-1s-2.41-.46-3.43-.64c-2.06-.33-3.69-.52-5.09-.65-2.79-.26-4.66-.25-7.26-.44-1.78-.34-3.6-.74-5.46-1l-5.65-.81-11.17-1.57c-2.92-.28-5.68-.2-8.42-.27l-8.43-.15-.51.71-4.8,0c-1.51,0-3,.1-4.38.13-2.84.11-5.56.19-8.46.24s-6,0-9.55.09-7.62.3-12.47.43c-6.33,0-2-.65-2.61-1-4,0-8.08.39-19.33,1.2-3.07,0-5.34-.2-7.65-.08l-9.75,1.46-4.87.73c-1.62.24-3.25.47-4.85.83l-9.65,2-4.83,1c-1.61.34-3.22.63-4.81,1.07-4.2.64-9.44,1.64-15.33,2.86l-2.24.47c-.75.17-1.5.39-2.27.59l-4.67,1.26-9.83,2.71-2.52.71-2.51.85L406.68,94l-10.15,3.42-19.12,7.4-10.68,4.67c-3.49,1.54-7,3-10.6,4.86-2.33,1.05-4.9,2.3-7.51,3.6l-3.93,2c-1.31.66-2.61,1.31-3.83,2-4.91,2.78-9.3,5.2-11.76,6-3.75,2.07-7.7,4.73-12,7.41l-6.58,4.15c-1.14.68-2.24,1.45-3.34,2.23l-3.34,2.33-6.75,4.76-3.38,2.4c-1.11.82-2.17,1.7-3.26,2.55-4.3,3.44-8.55,6.83-12.48,10.19l-10,8.39-2.71,2.3c-.92.77-1.85,1.56-2.74,2.42l-5.53,5.2-5.75,5.43-1.47,1.4-1.42,1.46-2.85,3-5.81,6.06-2.94,3.07c-1,1-1.89,2.15-2.84,3.22l-5.67,6.52-2.85,3.27c-1,1.09-1.91,2.18-2.78,3.33-3.6,4.53-7.18,9.06-10.71,13.51-3.34,4.61-6.62,9.14-9.8,13.55-1.65,2.16-3.06,4.43-4.52,6.62l-4.27,6.43c0-.07-.08-.16-.1-.24-3.65,5.42-6.76,11.13-10.05,16.74l-2.9,5.07c-.94,1.71-1.8,3.49-2.71,5.24q-2.69,5.28-5.4,10.6c-.93,1.75-1.72,3.58-2.54,5.39l-2.43,5.41-2.42,5.38c-.79,1.79-1.64,3.55-2.31,5.36l-6.72,15.93c-2,5.47-4,10.93-6,16.2l-1,2.88c-.27,1-.55,1.91-.81,2.84-.54,1.86-1,3.63-1.49,5.2-1.11,3.92-2.27,7.77-3.3,11.62s-1.8,7.72-2.7,11.54c-.44,1.9-.89,3.81-1.33,5.7l-.33,1.43-.26,1.43-.52,2.87c-.7,3.82-1.39,7.62-2.08,11.43-.29,1.62-.43,2.42-.72,4-.48,3.19-.63,5.53-1.09,9.74-.23,2.11-.54,4.68-1,8.06-.12.85-.24,1.74-.37,2.7s-.18,2-.28,3c-.22,2.15-.46,4.55-.74,7.24-.13,2.05-.22,3.92-.31,5.91s-.22,4.09-.18,6.63-.06,5.48-.17,9.15c-.06,1.84-.14,3.85-.22,6.09,0,1.12-.13,2.29-.11,3.52s0,2.52,0,3.88c.13,5.71.24,10.57.37,16.29a30.28,30.28,0,0,0,.94,6.16c.22,1.09.49,2.65.83,5.31.17,1.33.36,2.94.56,4.9.1,1,.21,2.06.33,3.23s.34,2.43.52,3.8c.25,3.53.61,7.41,1.06,11.73q.18,1.62.36,3.33c.06.57.12,1.15.19,1.73s.18,1.17.28,1.76c.39,2.39.81,4.89,1.25,7.54s.91,5.43,1.4,8.37c.12.73.25,1.47.38,2.23s.32,1.5.49,2.26c.33,1.54.68,3.11,1,4.72q1,4.83,2.2,10.18c.19.89.36,1.8.59,2.71s.48,1.82.73,2.75q.72,2.77,1.49,5.7c.63,2.15,1.26,4.36,1.91,6.6.32,1.12.65,2.24,1,3.37s.75,2.23,1.13,3.34l4.52,13.16c.37,1,.7,1.88,1.06,2.76s.75,1.73,1.11,2.56c.7,1.65,1.36,3.19,2,4.65,1.23,2.91,2.28,5.45,3.2,7.73.46,1.14.87,2.22,1.3,3.22l1.26,2.85c.79,1.81,1.49,3.45,2.15,5,1.3,3.15,2.47,6,3.85,9.32s3.34,7,5.86,11.89c1.27,2.37,2.43,4.79,3.77,7.09s2.68,4.6,4,6.88c2.68,4.56,5.24,9.15,8.18,13.46l4.25,6.54,2.12,3.25c.69,1.09,1.4,2.17,2.17,3.2l9,12.48a443.84,443.84,0,0,0,39.88,45.81,436.74,436.74,0,0,0,47,39.94,397,397,0,0,0,55.64,34.29c6.33,3.16,14.44,6.35,22.72,9.86,2.05.92,4.2,1.64,6.33,2.43l6.36,2.32,6.22,2.27,1.53.55,1.53.48,3,.93,9.5,3.24,4.42,1.51,4.55,1.32a34.68,34.68,0,0,0,5.84.87,28.13,28.13,0,0,1,3.52.7c.82.21,1.79.47,2.95.81s2.52.8,4.16,1.2a426.6,426.6,0,0,0,60.9,10l.38-.51c5.4.48,10.23.86,14.57,1.19,2.16.21,4.22.17,6.15.24l5.48.13c3.43.09,6.45.19,9.12.34,1.34.1,2.59.13,3.77.17s2.28.12,3.32.22l8.88-.37c3-.17,6-.21,8.92-.59,5.95-.64,11.91-1.28,17.85-2l17.73-2.9c1.48-.21,2.94-.54,4.4-.85l4.37-.91,8.71-1.78c3.32-.82,7.38-2.22,11.42-3.46l-7.23,1.09c-2.48.34-5,.54-7.26.77.09-.24.22-.53.31-.82l5.46-1c1.86-.4,3.73-.88,5.64-1.33l11.64-2.81,1.88-.66c.65-.23,1.32-.53,2-.81,1.45-.58,3.08-1.21,5-1.91s4.25-1.46,7-2.3c1.38-.42,2.87-.86,4.49-1.33l5.21-1.71,8.33-2.71,4.08-1.33c1.36-.43,2.66-1,4-1.47,5.25-2,10.47-3.95,15.62-6l7.25-3.25,8.7-3.75c2.87-1.34,5.68-2.78,8.52-4.15l7.83-4.18c1.29-.66,2.51-1.45,3.74-2.18l3.67-2.21c4.85-3,9.77-5.74,14.52-9.07,9.7-6.36,19.75-13.37,31.39-22.37l6.1-4.82c2-1.6,4.09-3.17,6-4.9,3.89-3.39,7.79-6.77,11.66-10.13s7.4-7.06,11.07-10.55l2.74-2.62c.89-.9,1.75-1.82,2.62-2.73l5.16-5.45,2.75-2.86c.07.31.17.6.24.85L813,748.67l-2,2.12c-.68.68-1.36,1.36-2.06,2L804.78,757c.07.31-8.58,8.73-5.54,6.68,5.19-5,9.39-8.9,13-12.17,3.44-3.41,6.35-6.18,9.14-8.83l4.15-4c1.34-1.38,2.67-2.83,4.08-4.37s2.89-3.21,4.49-5.05l2.49-2.89c.86-1,1.78-2.07,2.65-3.27,3.44-4.48,6.41-8.33,9.85-12.82,1-1.17,1.95-2.45,2.92-3.69l2.87-3.73,5.75-7.48c1-1.22,1.85-2.54,2.75-3.83l2.69-3.87,5.4-7.76c-4.59,7.14-8.9,14.47-13.93,21.32l-3.66,5.21c-1.24,1.73-2.38,3.52-3.72,5.17l-7.81,10.07c-21.45,27.4-51.8,55.93-78.3,73.24-4.12,2.82-7.27,5.21-10,7.19s-5,3.58-7.2,5.17-4.22,3.13-6.58,4.79-5.18,3.24-8.67,5.21a364.31,364.31,0,0,1-64,31.8c-3.18,1.52-7.13,3.3-11.1,5.09-4.22,1.54-8.57,2.67-13,4l-6.71,2-3.44,1-3.54.85-3.17.72-7.59,1.4c-2.54.44-5,1-7.61,1.28l-15.29,2c-2.11.72-4.07,1.21-6,1.76L584,870.87c3.57-.33,7.35-.59,11.21-1L607,868.18a6.1,6.1,0,0,1-.33.82c-1.64.4-3.26.74-4.13,1-3,.52-6,1.1-8.92,1.53l-8.75,1.09-8.61,1.07-2.14.25-2.14.16-4.29.32-13.76.87-13.8.18a34.6,34.6,0,0,1-4.55.86c-.91,0-1.84.06-2.78,0l-2.86-.07-5.88-.17-12.16-.36-19.46-1.24c-6.66-.7-13.41-1.55-19.95-2.3-5.62-.71-11.35-1.64-17.53-2.59-3.1-.43-6.26-1.15-9.57-1.87L435,865.48l-2.77-.63c-.93-.22-1.86-.51-2.81-.77l-5.83-1.65-6.16-1.77-3.22-.94-1.63-.48-1.64-.56-14-4.9c-1.23-.45-2.5-.84-3.74-1.36l-3.8-1.56-7.92-3.28-6.3-2.56-6.07-2.69c-3.87-1.7-7.26-3.2-9.37-4.31l-2-.87-2-1-3.89-1.94L344,830.34l-4-2-3.91-2.2-8-4.48L324,819.21c-1.42-.82-2.75-1.77-4.13-2.64l-8.2-5.36-4.09-2.69c-1.37-.89-2.65-1.9-4-2.84l-7.91-5.76a409.69,409.69,0,0,1-53.9-46l-6.61-7.17-1.65-1.79-1.58-1.86-3.12-3.74c-3.31-4.06-6-7-8.49-9.7s-4.64-5.36-7.23-8.58l-3.33-4.24c-.54-.71-1.12-1.4-1.64-2.14l-1.57-2.19q-3.12-4.4-6.25-8.8l-3.13-4.41-2.93-4.55-5.85-9.13c-2-3-3.73-6.22-5.57-9.36l-5.45-9.48c-1.76-3.19-3.36-6.49-5.06-9.75-.83-1.64-1.67-3.27-2.51-4.91l-1.26-2.47c-.43-.81-.84-1.64-1.2-2.49a399.9,399.9,0,0,1-23.95-62.32l-.3-.08c-.67-2.37-1.33-4.74-2.22-7.9-.23-.89-.46-1.78-.69-2.69s-.39-1.85-.58-2.78q-.58-2.82-1.18-5.73c-.78-3.87-1.62-7.83-2.37-11.8s-1.39-7.84-2.1-11.86l-1-6.05-.26-1.51-.19-1.52c-.12-1-.25-2-.37-3-.94-8-2.17-15.77-2.73-22.46,0-2.35,0-4.72,0-7.88-.22-2.29-.51-4.57-.66-6.86l-.36-6.89c-.23-4.59-.51-9.18-.68-13.78.27-6.49.54-13,.81-19.5.12-5.91-.08-9.58.54-16.92.17-1.6.32-3.16.51-4.7s.47-3.05.71-4.6c.48-3.09,1-6.29,1.53-9.88.27-1.82.5-3.55.71-5.22s.54-3.27.81-4.86c.49-3.18,1-6.28,1.49-9.56,1-6.07,2.75-12.38,4.26-18.85s3.48-12.92,5.28-19.22l1.56-5.44c.52-1.85,1.22-3.67,1.83-5.52,1.26-3.69,2.52-7.38,3.72-10.87-.12-.16-.25-.29-.36-.46l1-2.95c.34-1,.73-1.92,1.09-2.89l2.19-5.71c1.46-3.76,2.83-7.46,4.24-10.88l.18.26,4.83-11,2.4-5.42c.8-1.83,1.78-3.59,2.69-5.45,1.88-3.64,3.67-7.11,5.45-10.58l1.35-2.6,1.48-2.55,3-5.22c1.41-2.55,3.13-5.52,5-8.77l6.56-10.11,3.44-5.36.86-1.35.92-1.31,1.81-2.62c2.4-3.49,4.7-6.95,6.75-10.23,1.31-1.79,2.8-3.51,4.27-5.27l4.46-5.31,4.45-5.31c1.46-1.76,3.07-3.37,4.55-5,1.58-2,3.41-4.19,5.38-6.49,1-1.15,2-2.33,3-3.52s2.16-2.3,3.25-3.46l6.47-6.82c2.09-2.19,3.94-4.38,5.74-6.19l11.55-9.53,1.51-1.57,1.53-1.45,2.95-2.78,5.61-5.33,3.47-3c1.13-1,2.37-1.86,3.54-2.79l7-5.43,3.52-2.71c1.18-.9,2.35-1.81,3.59-2.64l7.43-5.16c0-.13,0-.25,0-.32l4.63-3.27,2.37-1.67,2.46-1.57,9.69-6.17,4.18-2.66,4.34-2.49,8.71-5c1.45-.82,2.88-1.66,4.33-2.45l4.37-2.23,8.47-4.3c0,.19,0,.38-.07.58a559.65,559.65,0,0,0-53.36,33.05l0,.58L305,140.4l2.61-1.79L310.3,137l10.3-6.43c3.29-2.16,6.65-4,9.84-5.81l9.17-5.23c1.45-.86,2.93-1.57,4.35-2.3l4.15-2.1,7.54-3.78c1.17-.57,2.28-1.15,3.38-1.63l3.14-1.33c2-.84,3.79-1.55,5.35-2.15l5.62-2.46,2.95-1.3c1-.43,2.05-.79,3.1-1.21l13.15-5c2.26-.92,4.63-1.66,7-2.45l7.24-2.4c2.45-.8,4.9-1.65,7.39-2.43l7.57-2.12,7.61-2.14c1.27-.36,2.53-.74,3.8-1.06l3.84-.89,15.1-3.54,14.57-2.74,3.49-.67,1.71-.34,1.71-.25,6.63-1,7.41-.41,3.77-.2c1.24-.08,2.46,0,3.64,0l11.5-1.12,5.9-.36L518,72l11.68-.13.64-1c2.33-.25,4.71-.31,7.12-.39l7.3-.26,7.32-.26,1.81-.06,1.8,0,3.55,0c-2-.28-3.91-.58-5.87-.82l-5.87-.54c4.18,0,4.37-.3,5-.51a5.47,5.47,0,0,1,1.92-.22c1.14,0,2.95.13,6,.4L570,69.34c1.59.2,3.18.36,4.76.6l4.73.81c-1.75-.06-3.3-.09-4.74-.09s-2.79.11-4.12.16l3.6.54,3.73.75,7.31,1.46c20.89,2.87,44.47,7.33,68.16,16.21C647.86,88.22,643,87.09,637.42,85.62Z"/><path class="cls-2" d="M601.33,80.25l-4.8-.8c-1.6-.27-3.2-.55-4.82-.71L582,77.62l-5.45-.84-2.81-.42-2.87-.3-11.76-1.22.51-.71,8.43.15c2.74.07,5.5,0,8.42.27l11.17,1.57,5.65.81c1.86.3,3.68.7,5.46,1,5.43,1.22,10,2.27,15.33,3.58C609.85,81.05,605.55,80.7,601.33,80.25Z"/><path class="cls-2" d="M433.12,874.85c5,1.1,10.76,2.35,15.76,3.4,3.88.8,7.84,1.5,11.82,2.26l6,1.12,3,.57,3,.42,12.1,1.64,6,.79,6,.5-.55.71,8.93.71c3,.2,6.05.56,9.1.58l18.08.5c2.38.23,4.8.29,8.06.39-1.13.16-2.49.3-4,.43s-3.25.29-5.09.27c-3.68,0-7.87,0-12.15-.11l-6.44-.2c-2.13-.07-4.23-.35-6.26-.53-4-.41-7.77-.84-10.78-1.27l-4.75.38c-5-.61-10-1.31-15-2-2.5-.36-5-.62-7.5-1.07L460.93,883l-7.45-1.39-3.72-.7c-1.24-.22-2.46-.56-3.69-.84l-14.73-3.52c-.92-.23-1.84-.42-2.75-.67l-2.7-.79-5.35-1.56-10.61-3.11c-3.49-1.13-6.95-2.39-10.45-3.59s-7-2.38-10.58-3.72a10.32,10.32,0,0,0-2.44-2.65c3.9,1.61,7.88,2.84,11.78,4.17l11.62,3.89,11.64,3.27C425.37,872.84,429.19,874,433.12,874.85Z"/><path class="cls-2" d="M877.11,663c-.57.39-.57,0-.15-1.08.21-.52.52-1.2.91-2s.81-1.75,1.3-2.8c2-4.17,5-9.89,7.67-15.44,2.52-5.65,4.9-11,6.11-14.3.61-1.63.91-2.73.77-3.08s-.6.12-1.7,1.55c-.94,1-1.56,1.34-2.5,2.36l-.69-1c1.71-3.54,3-7,4.39-10.51l4.21-10.59c.5-2.55,1-5.08,1.48-7.64l2.28-7.45c.38-1.24.78-2.47,1.13-3.72l.95-3.78c1.26-5,2.57-10.06,3.75-15.12,3.57-9.59,4-9.19,4.44-8.79-.63,3.15-1.27,6.3-1.9,9.44s-1.59,6.21-2.38,9.3a8.76,8.76,0,0,1,2.56-2.24l.17.18c.39.41.69.73,1,1.11.61-2.1,1.22-4.25,1.85-6.42s1-4.43,1.57-6.65c1-4.45,2.1-8.88,3-13.15.38-.56.9-1.91,1.28-2.49,1.18-2.57,2.17-4.42,3.21-6.24L920.26,552l-2.11,9.42L916,570.86c-.82,3.11-1.73,6.19-2.59,9.29-.22.75-.66,2.3-1.1,3.84l-1-1.13c-1.25,3.69-2.15,6.64-3.67,10.2q-2.32,7.61-4.63,15.2l-5.37,15a53.73,53.73,0,0,1,4.59-5.24l.19.26a37.66,37.66,0,0,1-.58,5c1.64-3.55,3.33-7.05,5-10.56.68-.24,1.62-1.3,2.3-1.55l.2.24c-1.3,3.47-2.66,7.13-4,10.79-.68,1.83-1.37,3.67-2,5.48-.33.91-.7,1.79-1.08,2.66s-.75,1.74-1.11,2.6a134.89,134.89,0,0,1-7.07,14,45,45,0,0,1-4.16,5.5l-.79-1.3c-.9,1.17-1.44,1.62-2.34,2.77.79-2,1.57-4,2.32-5.91s1.46-3.72,2-5.42c-.55.41-1.43,1.51-2,1.89.26-.86.8-2.5,1-3.43l-1.48,2.84-1.6,2.78-3.21,5.54-3.21,5.52c-.54.91-1.06,1.83-1.62,2.74Z"/><path class="cls-2" d="M891.39,614.92c1.48-3,2.78-5.75,4.05-8.37s2.27-5.26,3.47-8c-.5,2.56-1,5.09-1.48,7.64l-4.21,10.59c-1.39,3.46-2.68,7-4.39,10.51-1.23,1.78-2.42,3.61-4,6.1,1.31-3.41,2.47-6.45,3.6-9.41S890.39,618,891.39,614.92Z"/><path class="cls-2" d="M931.49,495.85c-1.2,4.26-2.41,8.51-3.66,13.49l-.46-.34c-.14-1.79-.27-3.56-.46-4.56a7.81,7.81,0,0,0-3.49,1.68c-1.15,4.19-2.8,12.12-1.75-1.26.31-3.95.63-7.88.94-11.83l1.49,1a32.33,32.33,0,0,0,.59-3.43c.17-1.27.35-2.62.52-3.94.34-2.65.68-5.19,1-6.77.62-3.15,1.14-2.44,1.46,9.18,1.84-17.51,4.19-26,4.2-1.31l.63,3.5c.21,1.16.41,2.3.54,3.42.29,2.24.6,4.39.93,6.35q-.48,6.06-1,12.17c-.41,2.31-.91,4.6-1.41,6.87.07-1.94.14-3.94.21-6s0-4.09-.07-6.15C931.64,503.88,931.56,499.77,931.49,495.85Z"/><path class="cls-2" d="M886.89,301.27c-.56-2.78,5.34,6-5.67-16.88,2.95,5.72,5.95,11.43,8.85,17.18,2.66,5.86,5.38,11.7,8,17.59,3.91,11.84,3.8,16.57-3.31-.47C892.13,312.88,889.58,307,886.89,301.27Z"/><path class="cls-2" d="M913,328.18c-1.53-2.43-3.06-4.85-4.51-7.24-1.08-2.41-2-4.6-2.89-6.54l-2.53-5.19c-1.48-3.09-2.58-5.48-3.42-7.36s-1.4-3.27-1.81-4.37-.74-1.85-1-2.55a42.46,42.46,0,0,0-1.73-4.74c-.5-1.15-1.19-2.62-2.19-4.6-.51-1-1.09-2.11-1.74-3.39s-1.39-2.72-2.36-4.26l-4.9-8.57-2.44-4.28c-.82-1.42-1.61-2.87-2.52-4.24l-5.92-10.05-2.93-5c-1-1.64-2.13-3.27-3.23-5l3.25,4.51,3,4.61,6,9.14,1.49,2.28c.49.76.93,1.56,1.39,2.34.92,1.57,1.85,3.14,2.77,4.72l5.6,9.56c2.29,4.19,4.45,8.4,6.65,12.54,1.08,2.09,2.22,4.13,3.24,6.22l2.94,6.31,2.93,6.28,1.46,3.13.73,1.57.65,1.59,5.2,12.74Z"/><path class="cls-2" d="M842.94,209.51c-4.33-4.28-5-4-6.79-5.3a33.3,33.3,0,0,1-4.09-3.9c-2.12-2.12-5.16-5.35-9.75-10.44-3.63-4.28-5.3-6.11-6.31-7.57a51.59,51.59,0,0,0-3.27-4.47c2.7,2.56,5.42,5.1,8.08,7.68l7.65,8c1.27,1.32,2.54,2.64,3.79,4,.63.66,1.27,1.3,1.88,2l1.78,2Z"/><path class="cls-2" d="M791.34,181c-2.37-2.07-4.75-4.14-7.06-6.24-1.16-1.05-2.28-2.12-3.4-3.17s-2.29-2-3.38-3.06l-9.23-7.3c-1.49-1.23-3-2.32-4.57-3.4l-4.45-3.18-4.8-3.34c-1.59-1.08-3.1-2.22-4.72-3.19L740,142a26.67,26.67,0,0,0-2.53-2.54,1.54,1.54,0,0,1,.27-.15L749,146.6c1,.62,1.92,1.22,2.86,1.86l2.76,2,5.41,3.87,6.56,4.19c2.2,1.49,4.32,3.08,6.33,4.51,1.69,1.54,3.35,3.07,5.67,5.1,3.52,2.63,6.77,5.59,10.13,8.41l5,4.26,2.51,2.14,2.4,2.25,2.55,2.82-5.08-3.78C794.49,183,792.82,182,791.34,181Z"/><path class="cls-2" d="M792,166.47l-3.65-3c-1.21-1-2.43-1.82-3.59-2.7l-6.61-5-5.82-4.43-5.17-3.67c-6.35-4.52-10.35-7.78-12.06-9.21,1.34.79,2.63,1.57,3.84,2.42l3.55,2.39,6.5,4.41,3,2,1.4,1,1.31,1,4.8,3.72c3,2.33,5.47,4.37,7.57,6.16.52.45,1,.87,1.49,1.3l1.3,1.28C790.64,165,791.37,165.76,792,166.47Z"/><path class="cls-2" d="M728.26,110.65a408,408,0,0,0-65.2-28.85l-7.41-3.09c-5-1.27-10.73-2.75-15.73-3.95A419.65,419.65,0,0,0,491.11,62.21,413.25,413.25,0,0,0,347.4,103.66c2.32-1.76,4.58-3.54,6.94-5.22l10-4.39,5-2.17,2.46-1.08,2.5-1,9.89-3.79c3.26-1.24,6.45-2.56,9.71-3.57l9.54-3.22c3.14-1,6.18-2.2,9.26-3,6.11-1.79,12-3.64,17.52-5.36,6.71-1.39,13.19-2.87,19.61-4.36,6.48-1.2,12.89-2.45,19.37-3.72,6.51-1,13.11-1.94,19.89-2.91,1.69-.27,3.42-.36,5.14-.53l5.24-.44c3.52-.28,7.1-.55,10.76-.81.71.17-.07.48-.21.73s0,.23.54.3a10.12,10.12,0,0,0,1.13.05c.51,0,1.15.06,2,.07,3.55-.06,7.07-.17,10.56-.3l5.21-.22c1.73-.07,3.45-.22,5.16-.18l20-.1c6.47.29,12.73.64,18.68,1.15l2.22.2,2.18.32q2.16.33,4.26.69c2.8.48,5.51,1,8.11,1.62,6.35.57,12.41,1.74,18.51,2.68,3.05.51,6.11.92,9.17,1.52L627,68.57l6.65,1.68c1.1.29,2.22.55,3.32.86l3.27,1,13.06,4c3.08,1,5.29,2,7.55,2.93l12.94,4.56c1.09.37,2.15.79,3.21,1.23l3.18,1.3,6.35,2.6c7.06,2.62,16.09,6.58,24,10,2,.82,3.81,1.79,5.53,2.66s3.3,1.72,4.7,2.49a27.78,27.78,0,0,1,5.71,3.79c3.52,1.57,6.89,3.45,10.45,5.37s7.27,4,11.18,6.34c-3.59-1.42,8.07,6.41,11.1,9.66l-7.52-4.79c-2.55-1.59-5.06-3.31-7.73-4.76C738.61,116.53,733.37,113.48,728.26,110.65Z"/><path class="cls-2" d="M577.13,83.8l-2.69-.36-1.37-.17-1.39-.11L566,82.71l-11.76-.93c.17-.26.35-.52.53-.77l11.78.93,5.7.45c1.87.15,3.69.45,5.46.66Z"/><path class="cls-2" d="M493.87,83.24c-6.08,1-11.49,2-15.52,2.52-2,.27-3.7.43-4.94.49a4.56,4.56,0,0,1-2.32-.11c.88-.14,1.76-.33,2.67-.45l2.75-.34,5.66-.7C486,84.19,489.94,83.64,493.87,83.24Z"/><path class="cls-2" d="M412,99.34l-8.83,3.24-4.32,1.56c-1.42.53-2.8,1.15-4.19,1.71l-8.17,3.36-4,1.63-2,.81-1.93.89-15.07,6.88-14.2,7.19a396.81,396.81,0,0,0-51.87,32.45l-7.44,6-3.86,3.09c-1.3,1.05-2.63,2.08-3.88,3.22l-7.79,6.84-4,3.49c-.68.57-1.34,1.18-2,1.81l-1.95,1.86c-5.16,5-10.64,10-15.67,15.48L243.09,209c-2.47,2.84-5,5.68-7.44,8.54-5.1,5.6-9.66,11.66-14.36,17.52-2.4,2.89-4.51,6-6.7,9l-6.47,9c-2,3-4,6.09-5.93,9.08l-2.91,4.47c-1,1.47-1.94,2.93-2.79,4.45-1.75,3-3.48,6-5.18,8.85s-3.42,5.71-4.85,8.6a77.34,77.34,0,0,0-4.13,7.37c-1.57,3.1-3.37,6.46-4.64,9.38-.61,1.48-.87,2.3-1.46,3.86q-1.54,3.45-3.07,6.89l-1.53,3.42c-.51,1.15-.92,2.32-1.39,3.48q-2.72,7-5.42,13.83c-1.67,4.63-3.17,9.3-4.76,13.91l-1.17,3.46-.59,1.72-.51,1.75c-.66,2.33-1.33,4.66-2,7s-1.33,4.64-2,7c-.32,1.15-.68,2.3-1,3.47l-.82,3.5q-1.65,7-3.28,14c-1,4.66-1.73,9.35-2.61,14-.41,2.33-.88,4.65-1.24,7s-.62,4.69-.92,7c-2.77,18.68-3.58,37.48-3.5,56.27l.42,14.12c0,2.36.32,4.7.49,7.05s.39,4.71.59,7.06.41,4.71.61,7.07.63,4.7.94,7c.68,4.7,1.29,9.42,2.06,14.13.28,3,1,7.29,1.79,11.89.41,2.3.81,4.68,1.27,7s1.05,4.6,1.54,6.72q1.37,5.16,2.79,11c1.06,3.82,2.31,7.79,3.49,11.93.6,2.07,1.2,4.17,1.82,6.3.28,1.08.66,2.13,1,3.19s.73,2.14,1.09,3.22l4.44,13.18a416.14,416.14,0,0,0,23.11,51.59c1.65,2.45,3.78,5.84,6.12,9.82l3.68,6.33c1.34,2.18,2.8,4.4,4.23,6.69a295.82,295.82,0,0,0,17.53,25.29,365.47,365.47,0,0,0,39.19,44.16l10.59,9.89c3.62,3.22,7.36,6.34,11.06,9.57s7.59,6.31,11.49,9.47c1.95,1.58,3.92,3.17,5.89,4.78,1,.83,2,1.58,3,2.34l3.09,2.32c-.87-.54-1.79-1.07-2.88-1.69s-2.35-1.3-3.82-2.31c-3-2-7.06-4.78-13.23-9.38-.61.21-1.15.4-1.74.63A419.1,419.1,0,0,1,237.8,734.3a17.79,17.79,0,0,0-1.43-3.24c-2.51-2.69-5.24-5.49-7.92-8.46l-7.91-9.29A414.18,414.18,0,0,1,185.18,659L181,650.39c-.75-1.52-1.52-3.06-2.29-4.61l-1.17-2.32c-.35-.79-.71-1.58-1.06-2.36-1.42-3.15-2.86-6.23-4.26-9.08s-2.84-5.44-3.93-7.75c-1.41-3.73-2.75-7.26-4.09-10.79l-2-5.31-1.77-5.55-3.14-9.11c-.5-1.52-1.1-3-1.52-4.57l-1.34-4.63-2.66-9.25c-.43-1.55-.93-3.07-1.29-4.64l-1.09-4.68c-.65-2.74-1.31-5.53-2-8.34-.34-1.41-.67-2.82-1-4.24s-.55-2.85-.84-4.28c-1-5.73-2.14-11.45-3.05-17-.2-1.6-.3-2.39-.49-4-.64-4.41-1.27-8.82-1.91-13.33l-.24-1.69c-.05-.57-.11-1.15-.16-1.72-.11-1.15-.21-2.31-.32-3.47-.22-2.34-.45-4.71-.68-7.14l-.53-6.61c-.17-2.21-.17-4.42-.26-6.63q-.21-6.65-.41-13.27c-.06-1.12,0-2.24,0-3.37l.06-3.42c0-2.3.08-4.62.12-6.94s.09-4.63.13-6.93.29-4.55.42-6.76q.59-6.56,1.15-13.09c.08-1.1.23-2.18.39-3.26l.46-3.25.93-6.5a392.66,392.66,0,0,1,17.58-74.66c.65-1.89,1.29-3.79,1.93-5.67s1.26-3.76,2-5.56l4.18-10.51,2.17-5.45c.8-1.75,1.59-3.48,2.37-5.21,1.58-3.45,3.15-6.91,4.81-10.55l.77-1.67.86-1.68c.59-1.14,1.19-2.29,1.78-3.45l3.48-6.75c.89-1.52,1.87-3.4,2.92-5.32s2.26-3.81,3.26-5.52c2-3.41,3.59-5.89,3.62-5.13l3-5.25,3.35-5.18,6.84-10.6c2.45-3.48,4.92-7,7.35-10.53l3.64-5.35,3.83-5.22c1.44-1.5,3.21-3.46,5.21-5.78l3.21-3.72,3.7-4c2.57-2.82,5.32-5.89,8.18-9.12s6.14-6.33,9.3-9.65c1.6-1.64,3.16-3.33,4.8-5l5-4.77,4.94-4.73c1.64-1.56,3.21-3.15,4.89-4.55,6.63-5.72,12.56-11.21,17.69-15.07l6-4.7c2-1.53,3.89-3.08,5.91-4.43l11.65-8.19c1.88-1.38,3.88-2.54,5.82-3.79l5.81-3.67,5.81-3.66c2-1.13,4-2.27,6-3.4l6.07-3.44,3.06-1.73,1.55-.88,1.59-.81,13.14-6.63c2.23-1.2,4.6-2.19,7-3.27l7.32-3.28,3.77-1.7c.64-.28,1.28-.58,1.93-.85l2-.77,8.15-3.21C397.72,103.63,404.5,101.71,412,99.34Z"/><path class="cls-2" d="M301.85,130.44l-11.28,8c-1.87,1.36-3.8,2.62-5.62,4.05l-5.49,4.29L274,151.06c-1.84,1.45-3.73,2.85-5.49,4.43l-10.81,9.32-2.18,1.75c-.73.6-1.43,1.24-2.15,1.87L249,172.27l-8.6,7.6c2.57-3.36,8.33-8.92,14.14-14.39,6-5.22,12.06-10.43,14.89-13.54,3.92-3.51,9.4-7.73,15.13-12,5.94-4,12.1-8,17.28-11.38,8.51-5.38,16.19-10.55,24.3-15-1.49,1.28,4.33-1.86,7.2-2.62l-8.07,4.66-4,2.31c-1.32.77-2.65,1.52-3.92,2.37Z"/><path class="cls-2" d="M148.75,321.76q-1.63,4.08-3.32,8.25c-1.06,2.8-2,5.67-3,8.52-2,5.7-4.11,11.36-5.65,17l-3.84,11.62c-.69,2.46-1,4.55-1.37,6.28s-.59,3.13-.78,4.28c-.37,2.3-.52,3.6-.62,4.63s-.15,1.79-.35,3c-.1.6-.24,1.32-.43,2.24s-.48,2-.73,3.46c-1,5.81-1.8,10.82-2.75,16.67-.14.82-.33,1.69-.45,2.6s-.24,1.88-.37,2.86c-.26,2-.52,4-.79,6.09l-1.51,11c-.31,3.65-.63,7.27-.94,10.9s-.65,7.25-.89,10.91-.24,7.36-.37,11.11c-1.23,15.33-.76,37.46,4,67.63.22,1.85.37,3.71.66,5.55s.59,3.68.89,5.51q.9,5.5,1.79,11l.45,2.72c.16.9.38,1.79.56,2.69q.59,2.67,1.15,5.33,1.16,5.31,2.27,10.49c.5,2.09,1.21,4.06,1.81,6l1.84,5.83c.61,1.93,1.21,3.86,1.83,5.82s1.21,3.94,2,5.92q1.88,5.64,3.74,11.29c.62,1.88,1.25,3.77,1.87,5.66l2.16,5.6q2.16,5.61,4.36,11.32c.7,1.92,1.59,3.76,2.41,5.66l2.53,5.68,2.44,5.44c.81,1.81,1.61,3.63,2.54,5.39l5.41,10.62,2.71,5.31,3,5.17,5.91,10.34c.74,1.47,1.6,2.87,2.44,4.28l2.53,4.23q2.55,4.23,5.11,8.47c1.09,1.79,2.31,3.43,3.46,5.08s2.32,3.27,3.46,4.9,2.3,3.24,3.46,4.89,2.32,3.32,3.64,5c1.11,1.33,1.76,2,2.91,3.29,2.32,3,4.77,6.09,7.28,9.31.62.81,1.28,1.6,2,2.37l2,2.36,4.1,4.75,3.31,4.46,1.71,2.27c.58.76,1.21,1.48,1.81,2.22,2.43,3,4.87,5.91,7.17,8.7,1.68,1.84,3.15,3.42,4.57,4.81s2.83,2.57,4.2,3.79c2.72,2.43,5.44,4.87,8.92,8.39,8.16,7.25,16.31,14.54,25,21.15l4.57,3.61,2.34,1.83,2.43,1.75,9.57,6.84a46.48,46.48,0,0,0,4.53,2l10.56,6.82c2.44,1.59,4.82,3.27,7.32,4.79l7.57,4.53,7.7,4.62c2.62,1.51,5.35,2.9,8.09,4.4l10,5.08c3.37,1.58,6.76,3,10.12,4.56l5.05,2.27,2.53,1.13c.84.39,1.7.75,2.57,1.08l10.46,4.1,3.11,1.24a10.32,10.32,0,0,1,2.44,2.65L377.47,859l-6-2.17c-2-.76-4-1.63-6-2.45l-10.72-4.92c-.9-.43-1.81-.84-2.7-1.28l-2.61-1.4q-2.58-1.4-5-2.76L338,840.81l-3.28-1.62c-1.09-.56-2.15-1.17-3.23-1.76l-12.68-7a70,70,0,0,1-6.23-3.6c-2.18-1.36-4.48-2.83-6.82-4.35l-3.56-2.31c-1.19-.78-2.41-1.53-3.56-2.39l-6.91-4.91-5.13-3.67c-1.7-1.22-3.41-2.41-5-3.72L272.24,798c-1.63-1.33-3.3-2.62-4.91-4l-4.73-4.17-9.46-8.34c-3.06-2.89-6-5.84-9.08-8.76l-4.52-4.39-1.14-1.09-1.08-1.15-2.16-2.3-8.63-9.19c-.71-.78-1.45-1.52-2.14-2.32l-2-2.39-4.1-4.8-4.09-4.8c-1.37-1.59-2.74-3.18-4-4.87l-7.72-10-2.55-3.06c-.9-1.06-1.76-2.3-2.81-3.66q-2.87-4.14-5.7-8.27c-1.9-2.76-3.83-5.49-5.54-8.37l-5.27-8.52c-1.76-2.85-3.54-5.67-5.1-8.63l-7.94-13.89-5.66-12.06c-1.6-3.43-3.07-6.26-4.11-8.82-2.21-5.07-3.83-8.53-5.4-11.62L150.25,634l-1.91-4.71q-1.91-4.71-3.8-9.42l-1.84-5c-.45-1.3-.81-2.27-1.11-3a11.63,11.63,0,0,0-1.29-2.55c-.68-1-1.31-1.7-3.66-8.88-.29-1.17-.6-2.39-.92-3.64s-.55-2.55-.83-3.84c-.54-2.57-1.07-5.15-1.55-7.5-.42-1.52-.87-3.19-1.34-4.94l-.7-2.69c-.25-.91-.47-1.84-.65-2.79-.78-3.8-1.59-7.72-2.33-11.34-.4-1.8-.78-3.53-1.12-5.13q-.28-1.19-.54-2.28c-.15-.72-.29-1.41-.42-2.05-.55-2.57-1.07-4.37-1.54-4.95-1.55-9.75-4.21-28.9-5.38-40-.19-3.73-.36-6.69-.54-9.32-.09-1.32-.18-2.56-.27-3.77s-.22-2.4-.24-3.62c-.21-4.89-.56-10.26-1.09-19.72,1.38-1.68,1.47-6.7.82-20,.06-1.86.33-3.72.5-5.6l.57-5.67q.54-5.7,1.09-11.48.8-5.75,1.58-11.5c.26-1.92.51-3.83.77-5.73s.48-3.8.85-5.67l2-11.1c.66-3.65,1.21-7.24,2.06-10.68s1.53-6.83,2.26-10.08S131,369,131.89,366c.85-2.79,1.8-5.93,2.76-9.12l1.44-4.79c.47-1.59.92-3.16,1.46-4.64,2-6,3.66-11,3.91-13,.68-1.94,1.25-3.87,2-5.69l2.12-5.38,4.05-10.17c.33-.81.64-1.63,1-2.43s.72-1.58,1.07-2.37q1.08-2.34,2.13-4.65l4.16-9.1c.34-.75.67-1.51,1-2.25l1.13-2.21c.76-1.47,1.51-2.94,2.28-4.42,1.51-3,3-6,4.61-9,.39-.76.77-1.54,1.19-2.31l1.3-2.28c.86-1.54,1.75-3.09,2.64-4.68,1.79-3.17,3.63-6.45,5.55-9.88-1.34,1.64-1.37,1.27-.61-.29s2.49-4.2,4.46-7.24,4.24-6.45,6.25-9.43,4-5.38,5-6.69c2.27-2.47,5.09-6.18,8.36-10.42s7.16-8.9,11-13.72c.93-1.22,2-2.35,3-3.52l3-3.45,5.87-6.62c1.86-2.14,3.8-4,5.6-5.76s3.46-3.27,5-4.57c-2.46,2.6-4.65,5-6.7,7.27-1,1.12-2,2.29-2.88,3.43l-2.7,3.38-5.41,6.73c-.92,1.15-1.9,2.29-2.87,3.52s-1.92,2.51-2.95,3.85a399.38,399.38,0,0,0-35.39,51.75l-3.89,6.78L169.85,276l-1.77,3.48L161,293.36C156.75,302.81,152.31,312.13,148.75,321.76Z"/><path class="cls-2" d="M325.72,804.42l2.72,1.63c.94.57,1.91,1.16,2.94,1.7l6.41,3.51c4.41,2.42,8.94,5.13,13.5,7.33s8.77,4.55,12.41,6.5c3.72,1.79,6.77,3.34,8.73,4.47-2.18-.77-4.69-1.78-7.64-3-1.48-.6-3-1.4-4.67-2.25l-5.34-2.76c-3.79-2-8.19-4.18-12.94-7.15l-7.65-4.58-4.17-2.5Z"/><path class="cls-2" d="M423.35,848c2.81.64,6.24,1.49,9.92,2.46,1.84.53,3.77.92,5.72,1.35l5.84,1.31,5.66,1.32c1.83.42,3.56.91,5.2,1.19,3.28.63,6,1.21,7.91,1.64,0,.2-.89.18-2.73,0-.92-.11-2.06-.27-3.42-.49s-2.93-.41-4.67-.84C445.81,854.2,435.59,852,423.35,848Z"/><path class="cls-2" d="M479.21,859.76c7.75.6,14.33,1.42,20.5,1.69,3.07.21,6,.45,8.93.7l4.36.4,4.36.21,15,.42c5,0,9.9-.21,15-.31-1.64.15-3.58.46-7.94.73l-3.76.19c-1.42.06-3,.13-4.86,0-3.65-.1-8.17-.29-13.81-.59C504.4,862.65,491.75,861.57,479.21,859.76Z"/><path class="cls-2" d="M577.42,860.74c4-.7,7.72-1.32,11.17-1.85l2.55-.4c.84-.11,1.65-.25,2.45-.42l4.68-.9c3-.57,5.89-1.07,8.68-1.53l4.12-.67c1.36-.23,2.69-.54,4-.8l15.11-3.7L645.12,846c1.34-.4,2.69-.78,4-1.2l4-1.42,8.14-2.86c5.49-1.79,10.79-4.1,16-6.19,2.66-1,5.17-2,7.56-3l6.78-3.17,6.47-3.09,3.21-1.54c1.07-.54,2.11-1.14,3.18-1.71,4.27-2.33,8.73-4.75,13.79-7.43,4.92-3,10.46-6.11,16.91-9.87l14-9.27c4.63-3.25,9.23-6.7,14.06-10.17,2-1.34,3.62-2.69,5.27-3.92l4.81-3.55c3.18-2.37,6.57-4.62,10.39-8l-2.6,2.92c-.86,1-1.79,1.88-2.69,2.8-6.25,4.81-11.71,9.39-18.25,13.81L754,793.38l-3,2.07c-1,.66-2.08,1.28-3.12,1.92l-12.63,7.71-6.86,5.13c-2.75,1.45-6.65,3.64-10.47,5.74a76.1,76.1,0,0,0-9.74,5.73c-2.11,1.06-4.22,2.18-6.36,3.21-4,1.69-9.36,4-14.58,6.35-2.59,1.25-5.27,2.22-7.65,3.31s-4.54,2.08-6.25,3c-2.21.85-4.41,1.77-6.65,2.56l-11.09,3.41-5.37,1.67c-1.75.56-3.52.93-5.21,1.39-13,3.68-9.31,3.75-30.08,8.17-2.88.73-5.91,1.2-9,1.74l-9.38,1.65c-1.59.26-3.17.6-4.77.8l-4.81.6Z"/><path class="cls-2" d="M829.3,723.6c-.42-2,16.45-21.79,24.88-34.14,1.59-2.9,3.73-6.54,6.07-10.37l3.6-5.84,3.3-6c2.13-3.85,4.08-7.39,5.47-10.1s2-4.68,1.89-5.18c3-6,4.56-8.87,5.93-11.13s2.36-4,4.42-7.52c1.55-2.49,2.74-4.32,4-6.1l-5,11.42c-.79,1.92-1.74,3.76-2.66,5.61s-1.84,3.7-2.75,5.55-1.83,3.68-2.74,5.51c-.46.92-.89,1.85-1.38,2.74l-1.48,2.67c-2,3.54-3.93,7.06-5.87,10.53l-1.47,2.55c-.51.84-1.06,1.66-1.59,2.49l-3.21,5-2.13,3.31-2.75,4.52c-1,1.61-2.18,3.22-3.28,4.89L847,701.63c-.93,1.26-1.83,2.55-2.78,3.8l-2.94,3.67-5.88,7.34c-1,1.21-1.94,2.46-3,3.65Z"/><path class="cls-2" d="M891.39,614.92c-1.29,1.63-3.21,4.58-.92-1.19.58-3.61,2.53-8.87,4.34-15.91,1.1-2.81,2-5.05,2.94-7.08s1.81-3.81,2.59-5.81c1.62-4,3.58-8.53,6.46-16.69.11-2.67.22-5.39.33-8.07,1-.83,3.51-9.35,5-17.94.81-4.29,1.68-8.53,2.26-11.77s.91-5.5,1.18-5.71l.5.39c.75-3.25,1.61-7.28,2.43-11.15.46-1.93.67-3.84,1-5.59s.53-3.32.74-4.62l1.48,1.08c-1,13.38.6,5.45,1.75,1.26a7.81,7.81,0,0,1,3.49-1.68c.19,1,.32,2.77.46,4.56-.15,1.38-.29,2.76-.44,4.16s-.43,2.79-.65,4.2c-.43,2.81-.86,5.64-1.3,8.47-.22,1.42-.44,2.83-.65,4.24s-.41,2.83-.73,4.21c-.57,2.78-1.14,5.53-1.7,8.23-1,1.82-2,3.67-3.21,6.24-.38.58-.9,1.93-1.28,2.49-1.27,3.5-2.66,6.92-4,10.37l-2-1.94c-.4-.4-.87-.8-4.44,8.79-1.18,5.06-2.49,10.08-3.75,15.12l-.95,3.78c-.35,1.25-.75,2.48-1.13,3.72l-2.28,7.45c-1.2,2.76-2.22,5.38-3.47,8S892.87,611.88,891.39,614.92Z"/><path class="cls-2" d="M936.56,524.14c-.21-4.65.14-9,.76-16.27.85-7.61,1.46-11.5,2-13.32s.82-1.56,1.22-.87c-.1,4.71-.5,10.52-1,16.14-.13,1.4-.27,2.8-.4,4.16s-.4,2.67-.6,3.94c-.41,2.54-.82,4.87-1.18,6.84Z"/><path class="cls-2" d="M862.68,234.84c-.62-.76-1.38-1.72-2.25-2.83s-1.78-2.38-2.88-3.66c-2.14-2.58-4.49-5.49-6.66-8.24l-3.08-4-1.34-1.78-1.24-1.52c-1.5-1.89-2.41-3.16-2.29-3.35a33.4,33.4,0,0,0,5.76,5.28c1.26,1,3,2.76,8.48,9.94.94,1.67,1.94,3.28,2.82,5S861.79,233.13,862.68,234.84Z"/><path class="cls-2" d="M798.41,164.45a51.53,51.53,0,0,1-7.06-5.5c-3.05-2.43-6.3-5.15-8.47-7-2.4-1.91-4.81-4-7.39-5.92l-7.93-5.84-4-3c-1.36-1-2.66-2-4.07-2.92l-8.24-5.49a99.16,99.16,0,0,1,17.29,10.23l5.66,3.94,2.93,2.07c1,.71,1.91,1.48,2.87,2.23l11.43,9.05c1.34,1.36,2.56,2.86,3.76,4.23Z"/><path class="cls-2" d="M686.94,834.38c-5.15,2.1-10.37,4-15.62,6-1.33.48-2.63,1-4,1.47l-4.08,1.33-8.33,2.71-5.21,1.71c-1.62.47-3.11.91-4.49,1.33-2.74.84-5,1.61-7,2.3s-3.59,1.33-5,1.91c-.72.28-1.39.58-2,.81l-1.88.66,1.88-.66c.65-.23,1.32-.53,2-.81,1.45-.58,3.08-1.21,5-1.91s4.25-1.46,7-2.3c1.38-.42,2.87-.86,4.49-1.33l5.21-1.71,8.33-2.71,4.08-1.33c1.36-.43,2.66-1,4-1.47C676.57,838.39,681.79,836.48,686.94,834.38Z"/><path class="cls-2" d="M694.3,830.25c4-1.89,8.57-3.7,12.78-6.08a97.61,97.61,0,0,0,11.57-7c4.2-2.47,9-5.46,13.1-8,3.83-2.14,7.45-4.62,11.13-7l5.51-3.58,2.75-1.79c.91-.62,1.79-1.28,2.68-1.92l9.63-6.51c.79-.53,1.58-1,2.35-1.58L767,786l1.11-.82,4.35-3.2c1.54-1.36,3.32-2.85,5.26-4.43s4-3.19,6.07-5.05c4.1-3.64,8.46-7.45,12.26-11.18l9.47-9,2.37-2.24c.79-.74,1.58-1.49,2.32-2.29l4.52-4.71c-.38,1.17.85.58,6-4L817.92,742l-5.16,5.45c-.87.91-1.73,1.83-2.62,2.73l-2.74,2.62c-3.67,3.49-7.33,7-11.07,10.55s-7.77,6.74-11.66,10.13c-1.92,1.73-4,3.3-6,4.9l-6.1,4.82c-11.64,9-21.69,16-31.39,22.37-4.75,3.33-9.67,6.08-14.52,9.07L723,816.87c-1.23.73-2.45,1.52-3.74,2.18l-7.83,4.18c-2.84,1.37-5.65,2.81-8.52,4.15l-8.7,3.75C694.23,830.82,694.27,830.51,694.3,830.25Z"/><path class="cls-2" d="M888.83,627.27l.69,1c-2.06,4.78-4,9.41-6,14l-6.63,13.69a52.11,52.11,0,0,1-3.06,5.65c-.91,1.49-1.69,2.66-2.42,3.7-1.46,2.07-2.74,3.59-4.47,6,1.94-3.47,3.89-7,5.87-10.53l1.48-2.67c.49-.89.92-1.82,1.38-2.74q1.37-2.75,2.74-5.51t2.75-5.55c.92-1.85,1.87-3.69,2.66-5.61Z"/><path class="cls-2" d="M939.09,433c-.3-1.87-.76-3.91-1.17-6.12s-.8-4.57-1.19-7.06-.76-5.1-1.13-7.79c-.16-1.36-.44-2.72-.69-4.09s-.49-2.78-.75-4.19l-1.49-8.57c-.25-1.44-.49-2.89-.74-4.34s-.63-2.86-.95-4.29c-1.29-5.7-2.51-11.34-3.86-16.57a8.9,8.9,0,0,0,1-3.34A423.7,423.7,0,0,1,939.09,433Z"/><path class="cls-2" d="M663.06,81.8c-3.28-1-4.18-.92-6.67-1.63s-6.64-1.87-16.47-5.41c5,1.2,10.76,2.68,15.73,3.95Z"/><path class="cls-2" d="M559.23,69.92l-3.55,0-1.8,0-1.81.06-7.32.26-7.3.26c-2.41.08-4.79.14-7.12.39l-.64,1L518,72l-5.77.07-5.9.36-11.5,1.12c-1.18,0-2.4,0-3.64,0l-3.77.2-7.41.41-6.63,1-1.71.25-1.71.34-3.49.67-14.57,2.74-15.1,3.54-3.84.89c-1.27.32-2.53.7-3.8,1.06l-7.61,2.14L414,88.91c-2.49.78-4.94,1.63-7.39,2.43l-7.24,2.4c-2.39.79-4.76,1.53-7,2.45l-13.15,5c-1.05.42-2.09.78-3.1,1.21l-2.95,1.3-5.62,2.46c-1.56.6-3.35,1.31-5.35,2.15L359,109.68c-1.1.48-2.21,1.06-3.38,1.63l-7.54,3.78-4.15,2.1c-1.42.73-2.9,1.44-4.35,2.3l-9.17,5.23c-3.19,1.82-6.55,3.65-9.84,5.81L310.3,137l-2.67,1.65L305,140.4,299.7,144l0-.58A559.65,559.65,0,0,1,353,110.38c0-.2,0-.39.07-.58l-8.47,4.3-4.37,2.23c-1.45.79-2.88,1.63-4.33,2.45l-8.71,5-4.34,2.49-4.18,2.66L309,135.08l-2.46,1.57-2.37,1.67-4.63,3.27c0,.07,0,.19,0,.32l-7.43,5.16c-1.24.83-2.41,1.74-3.59,2.64L285,152.42l-7,5.43c-1.17.93-2.41,1.79-3.54,2.79l-3.47,3-5.61,5.33-2.95,2.78-1.53,1.45-1.51,1.57-11.55,9.53c-1.8,1.81-3.65,4-5.74,6.19l-6.47,6.82c-1.09,1.16-2.23,2.27-3.25,3.46s-2,2.37-3,3.52c-2,2.3-3.8,4.49-5.38,6.49-1.48,1.64-3.09,3.25-4.55,5L215,221.07l-4.46,5.31c-1.47,1.76-3,3.48-4.27,5.27l1.28-2.2c.41-.65.76-1.23,1-1.64,3.9-4.63,6.89-8.42,9.31-11.62l1.73-2.29,1.62-2,2.8-3.55c1.71-2.19,3.16-4,4.69-5.77a34.43,34.43,0,0,1,5.24-5l6.83-7.13,3.42-3.56c.57-.59,1.13-1.2,1.72-1.78l1.79-1.7,11.59-10.84c3.92-3.44,7.86-6.7,11.59-9.9,4-3.7,8.26-7,12.44-10.48l6.3-5.18,6.53-4.88,5.55-3.77,2.78-1.89,1.39-.94,1.44-.87,11.45-7,3.54-2.43,3.5-2.17,7.16-4.38c6.34-3.5,13.76-6.74,20.3-9.87l2.33-1.3c.81-.45,1.68-.92,2.64-1.34,1.92-.88,4.09-1.86,6.66-3s5.54-2.36,9-3.8l1.33-.55,1.41-.5,3-1L386.2,95c-3.88,1.83-7.78,3.56-11.59,5.4,5.26-2,9.46-3.43,12.87-4.77,1.71-.66,3.22-1.26,4.6-1.83L394,93l1.81-.66c4.6-1.72,7.58-3,11.85-4.39,1.75-.59,3.53-1.22,5.35-1.8l5.55-1.56,11.11-3.11c1.82-.55,3.64-1,5.43-1.36l5.22-1.23c3.38-.81,6.55-1.6,9.39-2.36a423.29,423.29,0,0,1,66.65-8l15.55-.35c5.11,0,10.23.25,15.55.38l5.87.54C555.32,69.34,557.28,69.64,559.23,69.92Z"/><path class="cls-2" d="M169.56,292.35c-.91,1.86-1.89,3.62-2.69,5.45l-2.4,5.42-4.83,11-.18-.26c-1.41,3.42-2.78,7.12-4.24,10.88L153,330.54c-.36,1-.75,1.92-1.09,2.89l-1,2.95c.11.17.24.3.36.46-1.2,3.49-2.46,7.18-3.72,10.87-.61,1.85-1.31,3.67-1.83,5.52l-1.56,5.44c-1.8,6.3-3.86,12.73-5.28,19.22s-3.25,12.78-4.26,18.85c-.51,3.28-1,6.38-1.49,9.56-.27,1.59-.54,3.2-.81,4.86s-.44,3.4-.71,5.22c-.55,3.59-1.05,6.79-1.53,9.88-.24,1.55-.47,3.07-.71,4.6s-.34,3.1-.51,4.7c.11-1.88.13-3.56.26-5.11s.25-3,.37-4.32c.22-2.72.43-5.21.66-8.05.14-1.42.28-2.93.44-4.59.09-.84.18-1.71.28-2.63s.29-1.88.46-2.9c.67-4.07,1.55-9.06,2.75-15.53.31-1.82.79-3.59,1.21-5.37s.85-3.53,1.27-5.29q1.27-5.26,2.53-10.49c1-3.44,2-6.89,3-10.36.51-1.74,1-3.48,1.53-5.23.25-.88.51-1.76.77-2.64s.52-1.76.84-2.63c.52-1.54.79-2.33,1.32-3.88.9-2.76,1.82-5.57,2.74-8.41l1.4-4.27c.43-1.44,1-2.82,1.56-4.23,1.07-2.81,2.14-5.63,3.21-8.42l1.59-4.16c.53-1.38,1-2.77,1.63-4.09,1.74-3.71,3.38-7.24,5-10.77.82-1.76,1.65-3.52,2.48-5.31s1.83-3.51,2.77-5.33l5.71-10.18c.47-.83.92-1.67,1.41-2.5l1.54-2.45,3.14-5-3,5.22-1.48,2.55-1.35,2.6C173.23,285.24,171.44,288.71,169.56,292.35Z"/><path class="cls-2" d="M136.76,355.52c-.25,1.83-.76,4.44-1.37,7.33-.31,1.45-.64,3-1,4.49-.17.77-.34,1.53-.5,2.29s-.27,1.54-.4,2.29c-.92,3.59-1.75,6.77-2.55,9.85l-1.19,4.58c-.39,1.53-.84,3.06-1.14,4.68.25-1.43.53-2.55.73-3.46s.33-1.64.43-2.24c.2-1.21.26-2,.35-3s.25-2.33.62-4.63c.19-1.15.44-2.55.78-4.28s.68-3.82,1.37-6.28Z"/><path class="cls-2" d="M143.36,584.79a399.9,399.9,0,0,0,23.95,62.32c.36.85.77,1.68,1.2,2.49l1.26,2.47c.84,1.64,1.68,3.27,2.51,4.91,1.7,3.26,3.3,6.56,5.06,9.75l5.45,9.48c1.84,3.14,3.54,6.35,5.57,9.36l5.85,9.13,2.93,4.55,3.13,4.41q3.14,4.4,6.25,8.8l1.57,2.19c.52.74,1.1,1.43,1.64,2.14l3.33,4.24c2.59,3.22,4.84,5.78,7.23,8.58s5.18,5.64,8.49,9.7l3.12,3.74,1.58,1.86,1.65,1.79,6.61,7.17a409.69,409.69,0,0,0,53.9,46l7.91,5.76c1.33.94,2.61,2,4,2.84l4.09,2.69,8.2,5.36c1.38.87,2.71,1.82,4.13,2.64l4.23,2.47-4.37-2.41c-1.46-.8-2.85-1.72-4.27-2.58l-8.49-5.23-4.25-2.62c-1.39-.91-2.74-1.87-4.12-2.8l-8.23-5.64-3.62-2.58c-1.15-.84-2.22-1.71-3.28-2.52-2.11-1.63-4.1-3.16-6-4.64l-5.71-4.35c-1.89-1.45-3.68-3-5.6-4.63a295.31,295.31,0,0,1-29.33-27.62c-4.35-4.46-8.65-8.68-12.48-13.18l-5.85-6.59-2.9-3.27-2.73-3.4-8-9.94c-.62-.79-1.27-1.54-1.84-2.33L205.33,713,202,708.37c-2.21-3.08-4.48-6.08-6.71-9.3l-6.84-10.3-3.13-4.95c-1-1.69-1.93-3.4-2.9-5.1l-5.79-10.27c-1-1.7-1.87-3.48-2.76-5.26l-2.68-5.36-2.71-5.4c-.9-1.82-1.85-3.62-2.64-5.51-1.62-3.22-3.28-6.71-4.91-10.27l-2.41-5.37c-.74-1.82-1.41-3.65-2.09-5.44-2.65-7.18-5.17-13.77-6.48-18.45-1.25-3.9-2.5-7.78-3.72-11.57-.29-1-.62-1.89-.89-2.83s-.51-1.89-.76-2.82q-.76-2.79-1.48-5.46Z"/><path class="cls-2" d="M235.29,758.77l4.94,5.52c3.15,2.91,6.24,5.57,9.29,8.28s6.06,5.45,9.49,8.07l6.29,5.48,3.31,3.15,1.68,1.58c.56.52,1.17,1,1.76,1.53,2.4,2,4.9,4.19,7.67,6.54,5.44,4.84,12.42,9.92,21.62,16.91a46.48,46.48,0,0,1-4.53-2L287.24,807l-2.43-1.75-2.34-1.83-4.57-3.61c-8.68-6.61-16.83-13.9-25-21.15-3.48-3.52-6.2-6-8.92-8.39-1.37-1.22-2.73-2.44-4.2-3.79s-2.89-3-4.57-4.81c-2.3-2.79-4.74-5.74-7.17-8.7-.6-.74-1.23-1.46-1.81-2.22l-1.71-2.27L221.22,744l3.41,3.78c1.16,1.25,2.24,2.55,3.47,3.73Z"/><path class="cls-2" d="M309.07,816.19l7,4.52a1.11,1.11,0,0,0-.29.13c4.25,2.92,7.85,4.9,10.93,6.66s5.73,3.19,8.33,4.6,5.26,2.64,8.27,4.14,6.46,3.18,10.72,5.36c1.46.8,3.25,1.52,5,2.34l5.05,2.34c3.06,1.45,5.2,2.57,4.51,2.61,17.32,7.72,24.29,9.47,34.27,12.19,8.08,3.08,16.39,5.28,24.56,7.66l3.06.88,3.1.72,6.17,1.43,6.15,1.4,3.06.7,1.52.34,1.54.28,12.23,2.14,6.06,1.07,6.05.78,12,1.54,3,.38,3,.24,5.88.51c3.91.33,7.21.58,10,.75.69,0,1.35.09,2,.1h1.81q1.71,0,3.09-.06a29.2,29.2,0,0,0,6.8-.71c2.23-.67,1-1.61,2.58-2.16,2.71,0,5,.13,7.06.2s3.83.08,5.51.16c3.35.17,6.25.42,9.88.5,5-.09,9.77-.64,14.45-1l6.94-.64c2.3-.21,4.59-.37,6.86-.75,2.59-.59,5.18-1.18,8.57-1.88,9.06-1,20.25-2.92,23.25-4.65,5.67-.89,10.46-2.1,16.06-3.36l7.68-3.08,1.42-.3,1.4-.37,2.82-.75,5.68-1.53L649.7,860c1.92-.53,3.85-1,5.73-1.73q5.7-1.93,11.38-4c1.89-.68,3.79-1.32,5.65-2L678,849.9l10.78-4.33c1.88-.71,3.69-1.64,5.56-2.47l5.6-2.57c3.12-1.14,6.22-2.33,9.31-3.79s6.16-3.19,9.46-5c6.67-3.48,13.71-8.25,22.6-13.66,2.81-1.68,4.84-3.05,6.92-4.35l9.7-4.33c1.57-1,3-2.1,4.53-3.17l4.44-3.21c2.94-2.15,5.88-4.23,8.78-6.4l8.48-6.8,4.27-3.44c.72-.58,1.44-1.14,2.15-1.74l2.08-1.85c6.1-5.75,11.79-10.76,17.52-16.95l8.33-8.08,8.37-9c-.07-.24-.14-.55-.23-.86l2.6-2.88c.89-1,1.81-2,2.64-3l5-6.16,5.71-6.55c1.9-2.22,3.66-4.59,5.51-6.89,3.64-4.64,7.41-9.19,10.63-13.9,2.42-4.07,5-8.24,7.48-12.51s4.65-8.67,6.88-12.84c1.82-2.68,3.8-6.23,5.84-9.73,2-.7,4.37-5,6.41-8.49,3.26-6.78.9-3.93,1-5.18,1.23-3.33,4.77-10.78,3.58-7.42a45,45,0,0,0,4.16-5.5,134.89,134.89,0,0,0,7.07-14c.36-.86.73-1.72,1.11-2.6s.75-1.75,1.08-2.66c.67-1.81,1.36-3.65,2-5.48,1.37-3.66,2.73-7.32,4-10.79,5.13-13.36,7.34-19.5,9-25.8,1.22-4.3,2.56-8.78,3.78-13.29,1.06-4.56,2.13-9.11,3.15-13.48l1.3,1.3c-.57,2.85-1.11,5.5-1.65,8.16s-1,5.34-1.76,8.17c1.39-.54,2.79-1.12,4-.85a1.87,1.87,0,0,0,.21.24c-1.14,4-2,7.14-3.18,11.11-.46,1.58-.69,2.38-1.14,4-.87,3.17-2.06,6.23-3.12,9.34l-3.25,9.3c-1,3.13-2.33,6.15-3.55,9.2l-3.69,9.15c-.46,1.15-.9,2.31-1.42,3.54l-1.84,4c-1.54,3.37-3.16,6.94-4.78,10.5s-3.47,7-5.14,10.34c-1.24,2.7-2.16,4.92-3.2,7.29-.52,1.18-1.05,2.41-1.71,3.72s-1.49,2.72-2.43,4.31c-2.5,4.28-4.91,8.62-7.91,13.56l-6.51,9.39-3.39,4.91c-1.14,1.65-2.42,3.22-3.64,4.84-4.08,5.71-8.52,12.12-13.63,18.33-2.51,3.14-5,6.39-7.54,9.55s-5.25,6.22-7.78,9.31l5.4-3.9,3-3.44c.5-.57,1-1.13,1.5-1.71l1.42-1.76c1.88-2.35,3.75-4.67,5.63-7s3.77-4.64,5.59-7l5.37-7.42c-1.25,2-2.92,4.58-4.71,7.23-.86,1.34-1.9,2.61-2.86,3.91l-2.87,3.78c-3.67,4.86-6.58,8.77-6.16,8.94-2.39,2.89-4.84,5.67-7.22,8.47l-3.58,4.17c-1.2,1.37-2.35,2.79-3.64,4.09l-7.54,8-3.81,4-1,1-1,1-2,1.94-7,6.89-3.4,3.35c-1.12,1.12-2.33,2.13-3.48,3.2l-7,6.35c-2.36,2.12-4.7,4.34-7.29,6.39L784,798.36l-4.18,3.42c-1.42,1.16-3,2.23-4.49,3.38l-9.73,7.19c-.86.62-1.72,1.27-2.61,1.9l-2.76,1.83-5.77,3.81,8.57-5.46,6.27-4.3c3.57-2.43,6-4,7.87-5.16l4.13-2.47c1.08-.65,2-1.21,3.37-2.1-1.31,1.16-2.45,2.21-3.51,3.2s-2.09,1.83-3.1,2.74l-9.94,6.72c-1.64,1.07-3.22,2.24-4.94,3.24l-5.2,3.14c0,.76,0,1.47,0,2.17l-8.52,5.58c-2.85,1.83-5.82,3.47-8.73,5.23a24.18,24.18,0,0,0-3.61,1.13,196.41,196.41,0,0,1-17.51,9.29C717.24,844,715,845.05,713,846s-4.08,1.67-6,2.44c-3.8,1.53-7.31,2.95-11.13,4.63-1.89.88-3.94,1.62-6.11,2.54s-4.52,1.92-7.09,3.07c0,.06,0,.18-.07.31l-7.17,2.8-7.52,2.53-7.67,2.57-3.87,1.29-3.94,1.12L637,873.91c-5.14,1.3-10.29,2.53-15.65,3.84a45.57,45.57,0,0,0-4.64,2.38l-14.17,2.5c-2.34.39-4.67.86-7,1.18l-7,.88c-4.66.56-9.27,1.19-13.89,1.68l-13.86,1-4-.23c-1.29-.08-2.55-.14-3.82-.3l-7.76-.85c2.24-.3,5.6-.46,9.4-.63l12.06-.93,5.78-.46,2.61-.24c.82-.1,1.59-.23,2.31-.35,2.88-.47,4.86-.93,5.27-1.36-2.84.21-5.46.43-8.09.57l-8.1.19-12.91,1c-4.19.14-8,.35-10.7.74-10.06.5-19.43,0-28.4-.1-1.12,0-2.23,0-3.34-.1l-3.3-.24-6.5-.46-6.39-.45c-2.12-.16-4.23-.27-6.3-.57l-12.42-1.51L470,880.3l-6.14-1.06-12.44-2.17-1.57-.28-1.57-.35-3.14-.71-6.38-1.45c-15.52-3.47-31.44-8.57-46.42-13.82-6.21-2.4-12.28-5-18.44-7.5-1.38-.5-2.71-1.14-4.07-1.75l-4.11-1.83-8.3-3.72c-1.37-.64-2.79-1.2-4.13-1.91l-4.05-2-7.95-4c-1.81-1-3.6-1.92-5.32-2.92l-5-3-10.21-6.19c-1.09-.61-2.14-1.3-3.19-2l-3.16-2c-2.77-1.82-4.82-3-8.08-5.09s-7.63-5.26-15-11c3.81,2.63,5.46,3.67,7.55,4.9l3.76,2.24C304.15,813.52,306.25,814.59,309.07,816.19Z"/><path class="cls-2" d="M320.22,825.76l10.48,6.06,5.17,3c1.76,1,3.59,1.88,5.44,2.85l7.95,4,4.05,2c1.34.71,2.76,1.27,4.13,1.91l8.3,3.72,4.11,1.83c1.36.61,2.69,1.25,4.07,1.75l10.42,5.54c2.68.63,5.3,1.42,8,2,15,5.25,30.9,10.35,46.42,13.82,3.62,1.4,6.41,2.61,10.1,4-5-1-10.8-2.3-15.76-3.4-3.93-.81-7.75-2-11.62-3.07l-11.64-3.27-11.62-3.89c-3.9-1.33-7.88-2.56-11.78-4.17l-3.11-1.24-10.46-4.1c-.87-.33-1.73-.69-2.57-1.08l-2.53-1.13-5.05-2.27c-3.36-1.52-6.75-3-10.12-4.56l-10-5.08c-2.74-1.5-5.47-2.89-8.09-4.4l-7.7-4.62-7.57-4.53c-2.5-1.52-4.88-3.2-7.32-4.79C314.67,823.7,317.36,824.82,320.22,825.76Z"/><path class="cls-2" d="M381.45,847.58l7.92,3.28,3.8,1.56c1.24.52,2.51.91,3.74,1.36l14,4.9,1.64.56,1.63.48,3.22.94,6.16,1.77,5.83,1.65c.95.26,1.88.55,2.81.77l2.77.63,10.42,2.3c3.31.72,6.47,1.44,9.57,1.87,6.18,1,11.91,1.88,17.53,2.59-5.62-.71-11.35-1.64-17.53-2.59-3.1-.43-6.26-1.15-9.57-1.87L435,865.48l-2.77-.63c-.93-.22-1.86-.51-2.81-.77l-5.83-1.65-6.16-1.77-3.22-.94-1.63-.48-1.64-.56-14-4.9c-1.23-.45-2.5-.84-3.74-1.36l-3.8-1.56Z"/><path class="cls-2" d="M582.65,882c-.41.43-2.39.89-5.27,1.36-.72.12-1.49.25-2.31.35l-2.61.24-5.78.46-12.06.93c-3.8.17-7.16.33-9.4.63l7.76.85c1.27.16,2.53.22,3.82.3l4,.23c-6.8.75-13.59.79-20.36,1.05-3.26-.1-5.68-.16-8.06-.39.27-.43.53-.79.81-1.28-10-.39-15.77-.33-20.75-.24a156.22,156.22,0,0,1-15.62-1l-6-.5-6-.79-12.1-1.64-3-.42-3-.57-6-1.12c-4-.76-7.94-1.46-11.82-2.26-3.69-1.36-6.48-2.57-10.1-4l6.38,1.45,3.14.71,1.57.35,1.57.28,12.44,2.17L470,880.3l6.18.77,12.42,1.51c2.07.3,4.18.41,6.3.57l6.39.45,6.5.46,3.3.24c1.11.09,2.22.06,3.34.1,9,.13,18.34.6,28.4.1,2.69-.39,6.51-.6,10.7-.74l12.91-1,8.1-.19C577.19,882.47,579.81,882.25,582.65,882Z"/><path class="cls-2" d="M496.8,885.55a156.22,156.22,0,0,0,15.62,1c5-.09,10.79-.15,20.75.24-.28.49-.54.85-.81,1.28l-18.08-.5c-3,0-6.08-.38-9.1-.58l-8.93-.71Z"/><path class="cls-2" d="M540.11,875.47l13.8-.18,13.76-.87a4,4,0,0,1-.26.5c-4.13.42-6.87.78-11.19,1.15-2.15.24-4.71.25-8,.28s-7.41,0-12.63,0A34.6,34.6,0,0,0,540.11,875.47Z"/><path class="cls-2" d="M596.13,867.45l15.29-2c2.56-.28,5.07-.84,7.61-1.28l7.59-1.4,3.17-.72,3.54-.85,3.44-1,6.71-2c4.4-1.32,8.75-2.45,13-4,2.43-1.27,4.84-2.54,8-4.07l4-1.41,1.91-.7,1.85-.77,7.11-3c4.62-2,9.13-3.85,13.63-6.18l7-3.42,3.67-1.76,1.89-.91c.64-.31,1.26-.66,1.91-1l8.09-4.26,4.41-2.27c1.51-.78,3.09-1.54,4.65-2.46-1.72.32,3.87-2.83,9.2-5.87l3.84-2.21,1.65-1c.5-.33.94-.64,1.33-.91,1.54-1.1,2.08-1.68.72-1.24l7.37-5,3.67-2.45c1.22-.83,2.47-1.6,3.63-2.49q7.1-5.17,14.19-10.17l13.69-10.56,1.71-1.31,1.64-1.39,3.29-2.77,6.59-5.52c17.33-15,33.49-31.55,47.64-50.79l4.41-5.57c.76-1,1.57-1.93,2.31-2.93l2.18-3c2.86-4,5.53-7.8,7.3-10.64-1.8,1.9-4.55,5.49-6.95,8.59-1.2,1.55-2.31,3-3.17,4s-1.53,1.63-1.72,1.6c-.11-.28-.23-.57-.34-.86,6-8.6,11.65-16.48,17-25.48,1.16-1.56,2.3-3.12,3.39-4.58l1.59-2.12c.48-.69.94-1.36,1.38-2,0,.65-.17,1.5-.3,2.35s-.32,1.66-.37,2.31c-3.27,5.85-6.14,11.11-8.93,15.89-2.95,4.67-5.69,9-8.39,13.08-1.3,2.1-2.76,4-4.2,6l-4.36,5.84-4.56,6-5.16,6L831.45,738l-2.24,2.72c-.75.92-1.58,1.76-2.36,2.65-3.18,3.51-6.37,7-9.41,10.39,3.1-3.13,6.36-6.4,9.61-9.66l2.43-2.46c.77-.85,1.54-1.69,2.3-2.54l4.53-5,.53,1.69-5,6.16c-.83,1.07-1.75,2.06-2.64,3l-2.6,2.88c-2.81,2.94-5.63,5.89-8.38,8.75s-5.68,5.42-8.33,7.95l-4.36,4.07c-.71.66-1.41,1.33-2.13,2l-2.21,1.86-9,7.53c-3.63,3.37-7.33,6.17-10.79,9.06l-5.17,4.22c-.86.7-1.7,1.41-2.57,2.09l-2.64,2-10.79,8c-1.83,1.4-3.82,2.65-5.83,4l-6.24,4.07v.32c-2.08,1.3-4.11,2.67-6.92,4.35A417,417,0,0,1,700,839.59c-3.75,1.71-7.45,3.52-11.14,5.1s-7.33,3-10.76,4.33c-2.28.85-4.72,1.82-7.21,2.66l-7.34,2.3-6.52,2.27c-2.2.76-4.42,1.57-6.7,2.19L637,862.32c-1.2.39-2.39.8-3.69,1.15l-4.34,1.13c-7.12,1.48-15,3.41-22.28,4.4a6.1,6.1,0,0,0,.33-.82l-11.74,1.65c-3.86.45-7.64.71-11.21,1l6.08-1.66C592.06,868.66,594,868.17,596.13,867.45Z"/><path class="cls-2" d="M754.5,819.89l5.77-3.81,2.76-1.83c.89-.63,1.75-1.28,2.61-1.9l9.73-7.19c1.53-1.15,3.07-2.22,4.49-3.38l4.18-3.42,7.89-6.49c2.59-2,4.93-4.27,7.29-6.39l7-6.35c1.15-1.07,2.36-2.08,3.48-3.2l3.4-3.35,7-6.89,2-1.94,1-1,1-1,3.81-4,7.54-8c1.29-1.3,2.44-2.72,3.64-4.09l3.58-4.17c2.38-2.8,4.83-5.58,7.22-8.47-.42-.17,2.49-4.08,6.16-8.94l2.87-3.78c1-1.3,2-2.57,2.86-3.91,1.79-2.65,3.46-5.18,4.71-7.23l-5.37,7.42c-1.82,2.4-3.74,4.7-5.59,7s-3.75,4.65-5.63,7l-1.42,1.76c-.49.58-1,1.14-1.5,1.71l-3,3.44-5.4,3.9c2.53-3.09,5.14-6.21,7.78-9.31s5-6.41,7.54-9.55c5.11-6.21,9.55-12.62,13.63-18.33,1.22-1.62,2.5-3.19,3.64-4.84l3.39-4.91,6.51-9.39c3-4.94,5.41-9.28,7.91-13.56.94-1.59,1.73-3,2.43-4.31s1.19-2.54,1.71-3.72c1-2.37,2-4.59,3.2-7.29,1.67-3.32,3.59-6.74,5.14-10.34s3.24-7.13,4.78-10.5c-.71,2.72-1.38,5.51-2.06,8.31,1.54-3.4,3.17-7,4.85-10.65l.62-1.38.57-1.42c.38-.95.75-1.9,1.13-2.86.76-1.91,1.53-3.83,2.29-5.75l1.23-3.08.53.71,1.09,1.49a47,47,0,0,0,3.52-5.21c.87-1.38,1.24-2,1-.61-1.7,4.88-3.75,10.47-5.5,15.31-1.77,3.51-3.91,6.85-5.89,10.23-1.84,4-3.61,8-5.53,12s-4,7.72-5.84,11.41l-2.73,5.43-2.77,5.06c-1.75,3.27-3.34,6.34-4.67,9.14l.7,1.37-1.41,2.44c-.51.79-1,1.58-1.52,2.36l-3,4.68-6,9.28c-2.08,3-4.25,6-6.39,9q-1.6,2.25-3.24,4.52c-1.1,1.51-2.13,3.08-3.33,4.53L857,730.65l-3.4,4.42-.85,1.1-.9,1.06L850,739.34l-7.21,8.48c-1.23,1.4-2.39,2.87-3.68,4.23l-3.87,4.14a289.34,289.34,0,0,1-25.74,25.73l-7.62,6.77c-2.54,2.25-5,4.54-7.74,6.61l-7.93,6.36-4,3.18c-1.32,1.07-2.73,2-4.09,3-6.89,4.84-13,9.36-20.14,13.75,0-.7,0-1.41,0-2.17l5.2-3.14c1.72-1,3.3-2.17,4.94-3.24l9.94-6.72c1-.91,2-1.74,3.1-2.74s2.2-2,3.51-3.2c-1.33.89-2.29,1.45-3.37,2.1L777.21,805c-1.85,1.14-4.3,2.73-7.87,5.16l-6.27,4.3Z"/><path class="cls-2" d="M888.74,684.89l-.7-1.37c1.33-2.8,2.92-5.87,4.67-9.14l2.77-5.06,2.73-5.43c1.88-3.69,3.85-7.52,5.84-11.41s3.69-8,5.53-12c2-3.38,4.12-6.72,5.89-10.23l-1.25,3.31-1.43,3.29-2.9,6.68c-1.95,4.46-3.83,9-6,13.11-.82,2.1-3.19,6.82-6,12.23-.67,1.37-1.51,2.7-2.29,4.08l-2.4,4.12Z"/><path class="cls-2" d="M906.2,635.43l1.84-4c.52-1.23,1-2.39,1.42-3.54l3.69-9.15c1.22-3.05,2.53-6.07,3.55-9.2l3.25-9.3c1.06-3.11,2.25-6.17,3.12-9.34-.28,1.13-.53,2.28-.84,3.41s-.65,2.25-1,3.38l-2,6.84-2,7c-.18.59-.34,1.18-.53,1.77l-.62,1.77-1.24,3.58-1.23,3.08c-.76,1.92-1.53,3.84-2.29,5.75-.38,1-.75,1.91-1.13,2.86l-.57,1.42-.62,1.38c-1.68,3.67-3.31,7.25-4.85,10.65C904.82,640.94,905.49,638.15,906.2,635.43Z"/><path class="cls-2" d="M916.45,620.8l-1.09-1.49c.95-2.26,1.95-4.44,2.8-6.63s1.64-4.38,2.44-6.53l2.38-6.4,1.17-3.17c.4-1.06.8-2.11,1.11-3.19a30.75,30.75,0,0,1-.67,4.68c-1.09,5.37-2.48,11.51-3.62,16.91.24-1.41-.13-.77-1,.61A47,47,0,0,1,916.45,620.8Z"/><path class="cls-2" d="M927.18,575.54c2.68-11.73,4.81-21.36,6-29.73.69-4.17,1.33-8,1.93-11.56s.94-6.93,1.47-10.11l.74.62c-.13,3.51-.11,6.28-.13,9-1.36,7.22-2.88,14.19-4.31,21.17q-1.33,5.18-2.69,10.37l-1.35,5.23-.68,2.63-.34,1.33-.41,1.31A1.87,1.87,0,0,1,927.18,575.54Z"/><path class="cls-2" d="M927.12,370c-1.6-5.2-3.15-10.21-4.69-15.22-.4-1.25-.74-2.51-1.18-3.74s-.9-2.47-1.34-3.71q-1.35-3.72-2.71-7.53c-.66-2-1.31-3.91-2-5.86s-1.46-3.85-2.19-5.77l1.19.23c1.87,3.87,3.32,7.7,4.89,11.49s3.14,7.59,4.71,11.62c1.35,4.77,2.91,10.34,4.26,15.15A8.9,8.9,0,0,1,927.12,370Z"/><path class="cls-2" d="M407.69,88c-4.27,1.4-7.25,2.67-11.85,4.39L394,93l-1.95.81c-1.38.57-2.89,1.17-4.6,1.83-3.41,1.34-7.61,2.82-12.87,4.77,3.81-1.84,7.71-3.57,11.59-5.4l5.24-1.92c.9-.32,1.78-.67,2.7-1l2.75-.85Z"/><path class="cls-2" d="M840.36,716.29c2.55-3.36,5-6.59,7.29-9.75s4.15-6.31,6-9.16l2.59-4.1c.4-.66.79-1.29,1.18-1.91s.68-1.27,1-1.87c1.3-2.41,2.39-4.53,3.23-6.28-.3-.63-.64-1.31-1-1.92l3.21-5c.53-.83,1.08-1.65,1.59-2.49l1.47-2.55c1.73-2.45,3-4,4.47-6,.73-1,1.51-2.21,2.42-3.7a52.11,52.11,0,0,0,3.06-5.65l6.63-13.69c2-4.57,3.94-9.2,6-14,.94-1,1.56-1.33,2.5-2.36,1.1-1.43,1.57-1.89,1.7-1.55s-.16,1.45-.77,3.08c-1.21,3.26-3.59,8.65-6.11,14.3-2.71,5.55-5.72,11.27-7.67,15.44-.49,1.05-.93,2-1.3,2.8s-.7,1.47-.91,2c-.42,1-.42,1.47.15,1.08,1.64-2.75,3-5.65,4.45-8.52l4.31-8.59c-.69,2.12.18.94,1.33-.79s2.41-4.09,2.77-4.18c-.19.93-.73,2.57-1,3.43l-7.16,13.88c-.61,1.15-1.16,2.33-1.83,3.45l-2,3.38-3.91,6.75-2,3.46c-.44.62-.9,1.29-1.38,2l-1.59,2.12c-1.09,1.46-2.23,3-3.39,4.58a23.2,23.2,0,0,0-3.85,4.29c-.76,1-1.59,2.16-2.44,3.39s-1.84,2.47-2.79,3.79c-1.93,2.62-3.93,5.42-5.82,8.08l-2.74,3.84c-.9,1.2-1.81,2.28-2.61,3.28C843.94,712.29,842.4,714,840.36,716.29Z"/><path class="cls-2" d="M914.83,618.6l1.24-3.58.62-1.77c.19-.59.35-1.18.53-1.77l2-7,2-6.84c.33-1.13.66-2.25,1-3.38s.56-2.28.84-3.41c.45-1.59.68-2.39,1.14-4,.26,2.4.79,4.08,1,6.5-.31,1.08-.71,2.13-1.11,3.19L923,599.75l-2.38,6.4c-.8,2.15-1.61,4.32-2.44,6.53s-1.85,4.37-2.8,6.63Z"/><path class="cls-2" d="M909.91,576.35l-.17-.18c.32-1.14.66-2.33,1-3.54s.73-2.44,1-3.7c.59-2.5,1.17-5,1.71-7.32,1.3-3.45,2.69-6.87,4-10.37-.95,4.27-2,8.7-3,13.15-.53,2.22-1,4.46-1.57,6.65s-1.24,4.32-1.85,6.42C910.6,577.08,910.3,576.76,909.91,576.35Z"/><path class="cls-2" d="M373.92,853c6.16,2.48,12.23,5.1,18.44,7.5-2.72-.54-5.34-1.33-8-2Z"/><path class="cls-2" d="M621.33,877.75c5.36-1.31,10.51-2.54,15.65-3.84l15.43-4.59,3.94-1.12,3.87-1.29,7.67-2.57,7.52-2.53,7.17-2.8c0-.13,0-.25.07-.31,2.57-1.15,4.9-2.16,7.09-3.07s4.22-1.66,6.11-2.54c3.82-1.68,7.33-3.1,11.13-4.63,1.9-.77,3.88-1.55,6-2.44s4.28-2,6.71-3.18a196.41,196.41,0,0,0,17.51-9.29,24.18,24.18,0,0,1,3.61-1.13c-22.71,13.44-36.73,20.27-54.7,27.13a419.49,419.49,0,0,1-69.4,20.58A45.57,45.57,0,0,1,621.33,877.75Z"/><path class="cls-2" d="M684.17,850.84c7.75-2.84,15.18-6.44,22-9.43l3.79-1.44,3.5-1.48,6.67-2.82,6.56-3.23c2.13-1.05,4.1-2.26,6.07-3.34,3.92-2.23,7.62-4.37,11.18-6.44s6.76-4.39,10-6.49l4.74-3.15,2.33-1.55c.77-.52,1.5-1.09,2.25-1.63,11.94-8.69,23.11-17.1,36.32-27.86,0,.25.06.44.09.63l-4.2,3.7-2.08,1.83-2.15,1.73-8.57,6.86-4.28,3.43c-1.45,1.13-3,2.17-4.44,3.26l-9,6.57c-1.28.91-2.54,1.93-3.94,2.81l-4.26,2.78-9,5.85-2.36,1.51-2.46,1.41-5,2.88c-3.39,1.92-6.81,3.94-10.33,5.85-14.26,7.36-29.37,14.57-43.7,19.89C683.9,852.29,684,851.53,684.17,850.84Z"/><path class="cls-2" d="M748.2,813.4l6.24-4.07c2-1.33,4-2.58,5.83-4l10.79-8,2.64-2c.87-.68,1.71-1.39,2.57-2.09l5.17-4.22c3.46-2.89,7.16-5.69,10.79-9.06l9-7.53,2.21-1.86c.72-.63,1.42-1.3,2.13-2l4.36-4.07c2.65-2.53,5.5-5.16,8.33-7.95s5.57-5.81,8.38-8.75c.09.31.16.62.23.86l-8.37,9-8.33,8.08c-5.73,6.19-11.42,11.2-17.52,16.95l-2.08,1.85c-.71.6-1.43,1.16-2.15,1.74l-4.27,3.44-8.48,6.8c-2.9,2.17-5.84,4.25-8.78,6.4l-4.44,3.21c-1.49,1.07-3,2.19-4.53,3.17l-9.7,4.33Z"/><path class="cls-2" d="M817.44,753.78c4.89-5.86,8.47-9.92,11.35-13.12s4.9-5.67,7.07-8l5.16-6,4.56-6,4.36-5.84c1.44-1.95,2.9-3.88,4.2-6,2.7-4.12,5.44-8.41,8.39-13.08,2.79-4.78,5.66-10,8.93-15.89l1.07-1.62,1-1.64c.66-1.09,1.31-2.17,2-3.25l3.86-6.42c.64-1.07,1.28-2.14,1.93-3.21s1.29-2.14,1.86-3.26c1.19-2.21,2.39-4.45,3.61-6.74.9-1.15,1.44-1.6,2.34-2.77l.79,1.3c1.19-3.36-2.35,4.09-3.58,7.42-.07,1.25,2.29-1.6-1,5.18-2,3.52-4.45,7.79-6.41,8.49-2,3.5-4,7.05-5.84,9.73-2.23,4.17-4.55,8.51-6.88,12.84s-5.06,8.44-7.48,12.51c-3.22,4.71-7,9.26-10.63,13.9-1.85,2.3-3.61,4.67-5.51,6.89l-5.71,6.55-.53-1.69-4.53,5c-.76.85-1.53,1.69-2.3,2.54l-2.43,2.46C823.8,747.38,820.54,750.65,817.44,753.78Z"/><path class="cls-2" d="M902.41,618.23l3-7.48.54-1.64.45-1.68.9-3.34,1.79-6.69,1.79-6.67c.52-2.24,1-4.5,1.48-6.74.44-1.54.88-3.09,1.1-3.84.86-3.1,1.77-6.18,2.59-9.29l2.13-9.41,2.11-9.42,1.64-9.52c.56-2.7,1.13-5.45,1.7-8.23.32-1.38.5-2.8.73-4.21s.43-2.82.65-4.24c.44-2.83.87-5.66,1.3-8.47.22-1.41.44-2.81.65-4.2s.29-2.78.44-4.16l.46.34c1.25-5,2.46-9.23,3.66-13.49.07,3.92.15,8,.23,12.13,0,2.06.09,4.12.07,6.15s-.14,4-.21,6c.5-2.27,1-4.56,1.41-6.87q.48-6.11,1-12.17c.49-4.36,1-7,1.22-8.58s.53-2,.79-2c.51,0,1,2,1.52,1.14,0,.64,0,1.3.06,2l0,2c0,1.36,0,2.75-.06,4.15-.05,2.78-.09,5.57-.13,8.15-.62,7.25-1,11.62-.76,16.27-.53,3.18-1,6.52-1.47,10.11s-1.24,7.39-1.93,11.56c-1.17,8.37-3.3,18-6,29.73-1.22-.27-2.62.31-4,.85.76-2.83,1.22-5.52,1.76-8.17s1.08-5.31,1.65-8.16l-1.3-1.3c-1,4.37-2.09,8.92-3.15,13.48-1.22,4.51-2.56,9-3.78,13.29-1.67,6.3-3.88,12.44-9,25.8l-.2-.24c-.68.25-1.62,1.31-2.3,1.55-1.68,3.51-3.37,7-5,10.56A37.66,37.66,0,0,0,902.41,618.23Z"/><path class="cls-2" d="M907.18,578.41c.79-3.09,1.64-6.18,2.38-9.3s1.27-6.29,1.9-9.44l2,1.94c-.54,2.31-1.12,4.82-1.71,7.32-.26,1.26-.64,2.49-1,3.7s-.69,2.4-1,3.54A8.76,8.76,0,0,0,907.18,578.41Z"/><path class="cls-2" d="M155.74,639.16c3.07,6.13,6,12.32,9.42,18.24l5,9,1.25,2.23,1.35,2.18,2.71,4.34,2.08,3.64c1,2.15,2.09,4.31,3.08,6.47l-1.78-.06-5.91-10.34-3-5.17-2.71-5.31-5.41-10.62c-.93-1.76-1.73-3.58-2.54-5.39l-2.44-5.44C156.38,641.39,155.89,639.88,155.74,639.16Z"/><path class="cls-2" d="M872.13,675.29l2-3.46,3.91-6.75,2-3.38c.67-1.12,1.22-2.3,1.83-3.45L889,644.37c.58-.38,1.46-1.48,2-1.89-.49,1.7-1.2,3.51-2,5.42s-1.53,3.91-2.32,5.91c-1.22,2.29-2.42,4.53-3.61,6.74-.57,1.12-1.21,2.2-1.86,3.26S880,666,879.32,667l-3.86,6.42c-.64,1.08-1.29,2.16-2,3.25l-1,1.64L871.46,680c0-.65.24-1.47.37-2.31S872.09,675.94,872.13,675.29Z"/><path class="cls-2" d="M905.05,600.6c1-3,1.8-5.28,2.58-7.54,1.52-3.56,2.42-6.51,3.67-10.2l1,1.13c-.5,2.24-1,4.5-1.48,6.74l-1.79,6.67-1.79,6.69-.9,3.34-.45,1.68-.54,1.64-3,7.48-.19-.26a53.73,53.73,0,0,0-4.59,5.24C900.29,615.42,903.18,607.79,905.05,600.6Z"/><path class="cls-2" d="M820.67,739.16c1.06-1.24,2.2-2.41,3.2-3.7l3.06-3.81,6.12-7.58c-1.26.55-2,.43-3.26.95,1.41-1.64,2.91-3.28,4.33-5s2.8-3.54,4.2-5.33l4.21-5.32c1.38-1.77,2.82-3.47,4-5.27,3.54-5.42,2.88-5.24,5.94-10.07,1.1-1.67,2.29-3.28,3.28-4.89l2.75-4.52,2.13-3.31c.32.61.66,1.29,1,1.92-.84,1.75-1.93,3.87-3.23,6.28-.33.6-.66,1.23-1,1.87s-.78,1.25-1.18,1.91l-2.59,4.1c-1.82,2.85-3.82,5.93-6,9.16s-4.74,6.39-7.29,9.75c2-2.32,3.58-4,5.16-5.65,1-1.26,2-2.47,2.92-3.78l2.78-3.88,5.56-7.77c2.08-3,3.54-5.43,4.77-7.23a39.52,39.52,0,0,1,2.81-3.8c1.34-1.54,1.67-1.25,1.41-.21-5.38,9-11,16.88-17,25.48.11.29.23.58.34.86-3.44,4.49-6.41,8.34-9.85,12.82-.87,1.2-1.79,2.24-2.65,3.27l-2.49,2.89c-1.6,1.84-3.08,3.5-4.49,5.05s-2.74,3-4.08,4.37l-4.15,4c-2.79,2.65-5.7,5.42-9.14,8.83-3.6,3.27-7.8,7.14-13,12.17-3,2.05,5.61-6.37,5.54-6.68l4.21-4.16c.7-.68,1.38-1.36,2.06-2l2-2.12,7.91-8.66C820.84,739.76,820.74,739.47,820.67,739.16Z"/><path class="cls-2" d="M829.79,725c-.16-.47-.32-.94-.49-1.42l3.12-3.51c1-1.19,2-2.44,3-3.65l5.88-7.34,2.94-3.67c.95-1.25,1.85-2.54,2.78-3.8l5.53-7.61c-3.06,4.83-2.4,4.65-5.94,10.07-1.22,1.8-2.66,3.5-4,5.27l-4.21,5.32c-1.4,1.79-2.81,3.57-4.2,5.33S831.2,723.38,829.79,725Z"/><path class="cls-2" d="M471.09,86.14l-11.32,2-5.59,1-5.67,1.29c3.46-.75,3.94-1.15,6.13-1.72S460.77,87.47,471.09,86.14Z"/><path class="cls-2" d="M783.72,769.62c2.79-2.69,6.15-5.81,9.88-9.2S801.11,753,805.24,749c2.11-1.95,4.07-4.12,6.11-6.23l6.16-6.38c1-1.07,2.08-2.1,3.08-3.18l2.93-3.28c2-2.15,3.9-4.28,5.78-6.36.17.48.33.95.49,1.42l-6.94,7.9c-.58.64-1.13,1.31-1.73,1.93l-1.8,1.86c-1.21,1.23-2.4,2.47-3.6,3.7l-7.2,7.41L800.86,755l-4,3.62-2.06,1.87c-.7.61-1.44,1.2-2.17,1.81Z"/><path class="cls-2" d="M620.71,858.77c4.18-1.16,7.85-2.15,11.13-3,3.24-1,6.11-1.91,8.73-2.7l7.23-2.12c1.12-.34,2.22-.61,3.28-1l3.15-1.05c2.88-.39,3.17-.08,1.73.67a48.81,48.81,0,0,1-8.61,3.1c-4,1.15-8.86,2.43-13.58,3.61l-1.77.44-1.76.34-3.43.64C624.6,858.11,622.52,858.47,620.71,858.77Z"/><path class="cls-2" d="M614.08,81.55c-5.34-1.31-9.9-2.36-15.33-3.58,2.6.19,4.47.18,7.26.44,1.4.13,3,.32,5.09.65,1,.18,2.17.33,3.43.64s2.66.65,4.21,1l9.64,2.42,4.51,1.11c1.49.42,3,.89,4.53,1.34C636.57,86.21,619,81.45,614.08,81.55Z"/><path class="cls-2" d="M128.93,435.56c-.62,7.34-.42,11-.54,16.92-.27,6.48-.54,13-.81,19.5.17,4.6.45,9.19.68,13.78l.36,6.89c.15,2.29.44,4.57.66,6.86,0,3.16,0,5.53,0,7.88.56,6.69,1.79,14.42,2.73,22.46.12,1,.25,2,.37,3l.19,1.52.26,1.51,1,6.05c.71,4,1.42,8,2.1,11.86s1.59,7.93,2.37,11.8q.6,2.91,1.18,5.73c.19.93.39,1.86.58,2.78s.46,1.8.69,2.69c-1-3.16-1.58-5.84-2.33-8.3s-1.41-4.75-2.13-7.2q-.75-3.31-1.52-6.66l-1.2-6.78c-.79-4.53-1.58-9.09-2.38-13.65-.57-4.59-1.14-9.19-1.71-13.75-.27-2.29-.59-4.56-.82-6.83s-.34-4.55-.5-6.8c-.24-3.28-.48-6.57-.8-11.77-.11-1.29-.11-2.72-.12-4.29s0-3.29,0-5.19c0-3.8-.07-8.31,0-13.78.1-4.52,0-7.93,0-13,0-1.28,0-2.67,0-4.2,0-.77,0-1.57,0-2.42s.12-1.74.19-2.68C127.93,445.72,128.35,441.2,128.93,435.56Z"/></g></g></svg>